<svg viewBox="0 0 879.5499877929688 400" xmlns="http://www.w3.org/2000/svg"><g><g><g><g><g><line x1="42.65199947357178" y1="374.61000061035156" x2="37.65199947357178" y2="374.61000061035156" style="visibility: inherit;" fill="rgb(0, 0, 0)" stroke="rgb(204, 204, 204)" stroke-width="1px"></line><line x1="42.65199947357178" y1="327.7837505340576" x2="37.65199947357178" y2="327.7837505340576" style="visibility: inherit;" fill="rgb(0, 0, 0)" stroke="rgb(204, 204, 204)" stroke-width="1px"></line><line x1="42.65199947357178" y1="280.9575004577636" x2="37.65199947357178" y2="280.9575004577636" style="visibility: inherit;" fill="rgb(0, 0, 0)" stroke="rgb(204, 204, 204)" stroke-width="1px"></line><line x1="42.65199947357178" y1="234.13125038146973" x2="37.65199947357178" y2="234.13125038146973" style="visibility: inherit;" fill="rgb(0, 0, 0)" stroke="rgb(204, 204, 204)" stroke-width="1px"></line><line x1="42.65199947357178" y1="187.30500030517578" x2="37.65199947357178" y2="187.30500030517578" style="visibility: inherit;" fill="rgb(0, 0, 0)" stroke="rgb(204, 204, 204)" stroke-width="1px"></line><line x1="42.65199947357178" y1="140.47875022888192" x2="37.65199947357178" y2="140.47875022888192" style="visibility: inherit;" fill="rgb(0, 0, 0)" stroke="rgb(204, 204, 204)" stroke-width="1px"></line><line x1="42.65199947357178" y1="93.65250015258793" x2="37.65199947357178" y2="93.65250015258793" style="visibility: inherit;" fill="rgb(0, 0, 0)" stroke="rgb(204, 204, 204)" stroke-width="1px"></line><line x1="42.65199947357178" y1="46.82625007629399" x2="37.65199947357178" y2="46.82625007629399" style="visibility: inherit;" fill="rgb(0, 0, 0)" stroke="rgb(204, 204, 204)" stroke-width="1px"></line><line x1="42.65199947357178" y1="0" x2="37.65199947357178" y2="0" style="visibility: inherit;" fill="rgb(0, 0, 0)" stroke="rgb(204, 204, 204)" stroke-width="1px"></line></g><g transform="translate(32.65199947357178, 0)"><text style="text-anchor: end; visibility: hidden; font-family: Roboto, sans-serif; font-size: 12px; font-weight: 200;" x="0" y="374.61000061035156" dx="0em" dy="0.3em" fill="rgb(33, 33, 33)" stroke="none" stroke-width="1px">1.4</text><text style="text-anchor: end; visibility: inherit; font-family: Roboto, sans-serif; font-size: 12px; font-weight: 200;" x="0" y="327.7837505340576" dx="0em" dy="0.3em" fill="rgb(33, 33, 33)" stroke="none" stroke-width="1px">1.5</text><text style="text-anchor: end; visibility: inherit; font-family: Roboto, sans-serif; font-size: 12px; font-weight: 200;" x="0" y="280.9575004577636" dx="0em" dy="0.3em" fill="rgb(33, 33, 33)" stroke="none" stroke-width="1px">1.6</text><text style="text-anchor: end; visibility: inherit; font-family: Roboto, sans-serif; font-size: 12px; font-weight: 200;" x="0" y="234.13125038146973" dx="0em" dy="0.3em" fill="rgb(33, 33, 33)" stroke="none" stroke-width="1px">1.7</text><text style="text-anchor: end; visibility: inherit; font-family: Roboto, sans-serif; font-size: 12px; font-weight: 200;" x="0" y="187.30500030517578" dx="0em" dy="0.3em" fill="rgb(33, 33, 33)" stroke="none" stroke-width="1px">1.8</text><text style="text-anchor: end; visibility: inherit; font-family: Roboto, sans-serif; font-size: 12px; font-weight: 200;" x="0" y="140.47875022888192" dx="0em" dy="0.3em" fill="rgb(33, 33, 33)" stroke="none" stroke-width="1px">1.9</text><text style="text-anchor: end; visibility: inherit; font-family: Roboto, sans-serif; font-size: 12px; font-weight: 200;" x="0" y="93.65250015258793" dx="0em" dy="0.3em" fill="rgb(33, 33, 33)" stroke="none" stroke-width="1px">2</text><text style="text-anchor: end; visibility: inherit; font-family: Roboto, sans-serif; font-size: 12px; font-weight: 200;" x="0" y="46.82625007629399" dx="0em" dy="0.3em" fill="rgb(33, 33, 33)" stroke="none" stroke-width="1px">2.1</text><text style="text-anchor: end; visibility: hidden; font-family: Roboto, sans-serif; font-size: 12px; font-weight: 200;" x="0" y="0" dx="0em" dy="0.3em" fill="rgb(33, 33, 33)" stroke="none" stroke-width="1px">2.2</text></g><line x1="42.65199947357178" y1="0" x2="42.65199947357178" y2="374.61000061035156" fill="rgb(0, 0, 0)" stroke="rgb(204, 204, 204)" stroke-width="1px"></line></g></g><g transform="translate(42, 0)" clip-path="url(#clip_0)"><clipPath id="clip_0"><rect width="837" height="374"></rect></clipPath><g><g><g><line x1="0" y1="0" x2="0" y2="374.61000061035156" fill="rgb(0, 0, 0)" stroke="rgb(66, 66, 66)" stroke-width="1px" opacity="0.25"></line><line x1="59.8272143233163" y1="0" x2="59.8272143233163" y2="374.61000061035156" fill="rgb(0, 0, 0)" stroke="rgb(66, 66, 66)" stroke-width="1px" opacity="0.25"></line><line x1="119.6544286466326" y1="0" x2="119.6544286466326" y2="374.61000061035156" fill="rgb(0, 0, 0)" stroke="rgb(66, 66, 66)" stroke-width="1px" opacity="0.25"></line><line x1="179.4816429699489" y1="0" x2="179.4816429699489" y2="374.61000061035156" fill="rgb(0, 0, 0)" stroke="rgb(66, 66, 66)" stroke-width="1px" opacity="0.25"></line><line x1="239.3088572932652" y1="0" x2="239.3088572932652" y2="374.61000061035156" fill="rgb(0, 0, 0)" stroke="rgb(66, 66, 66)" stroke-width="1px" opacity="0.25"></line><line x1="299.1360716165815" y1="0" x2="299.1360716165815" y2="374.61000061035156" fill="rgb(0, 0, 0)" stroke="rgb(66, 66, 66)" stroke-width="1px" opacity="0.25"></line><line x1="358.9632859398978" y1="0" x2="358.9632859398978" y2="374.61000061035156" fill="rgb(0, 0, 0)" stroke="rgb(66, 66, 66)" stroke-width="1px" opacity="0.25"></line><line x1="418.7905002632141" y1="0" x2="418.7905002632141" y2="374.61000061035156" fill="rgb(0, 0, 0)" stroke="rgb(66, 66, 66)" stroke-width="1px" opacity="0.25"></line><line x1="478.6177145865304" y1="0" x2="478.6177145865304" y2="374.61000061035156" fill="rgb(0, 0, 0)" stroke="rgb(66, 66, 66)" stroke-width="1px" opacity="0.25"></line><line x1="538.4449289098467" y1="0" x2="538.4449289098467" y2="374.61000061035156" fill="rgb(0, 0, 0)" stroke="rgb(66, 66, 66)" stroke-width="1px" opacity="0.25"></line><line x1="598.272143233163" y1="0" x2="598.272143233163" y2="374.61000061035156" fill="rgb(0, 0, 0)" stroke="rgb(66, 66, 66)" stroke-width="1px" opacity="0.25"></line><line x1="658.0993575564793" y1="0" x2="658.0993575564793" y2="374.61000061035156" fill="rgb(0, 0, 0)" stroke="rgb(66, 66, 66)" stroke-width="1px" opacity="0.25"></line><line x1="717.9265718797956" y1="0" x2="717.9265718797956" y2="374.61000061035156" fill="rgb(0, 0, 0)" stroke="rgb(66, 66, 66)" stroke-width="1px" opacity="0.25"></line><line x1="777.7537862031119" y1="0" x2="777.7537862031119" y2="374.61000061035156" fill="rgb(0, 0, 0)" stroke="rgb(66, 66, 66)" stroke-width="1px" opacity="0.25"></line><line x1="837.5810005264282" y1="0" x2="837.5810005264282" y2="374.61000061035156" fill="rgb(0, 0, 0)" stroke="rgb(66, 66, 66)" stroke-width="1px" opacity="0.25"></line></g><g><line x1="0" y1="374.61000061035156" x2="837.5810005264282" y2="374.61000061035156" fill="rgb(0, 0, 0)" stroke="rgb(66, 66, 66)" stroke-width="1px" opacity="0.25"></line><line x1="0" y1="327.7837505340576" x2="837.5810005264282" y2="327.7837505340576" fill="rgb(0, 0, 0)" stroke="rgb(66, 66, 66)" stroke-width="1px" opacity="0.25"></line><line x1="0" y1="280.9575004577636" x2="837.5810005264282" y2="280.9575004577636" fill="rgb(0, 0, 0)" stroke="rgb(66, 66, 66)" stroke-width="1px" opacity="0.25"></line><line x1="0" y1="234.13125038146973" x2="837.5810005264282" y2="234.13125038146973" fill="rgb(0, 0, 0)" stroke="rgb(66, 66, 66)" stroke-width="1px" opacity="0.25"></line><line x1="0" y1="187.30500030517578" x2="837.5810005264282" y2="187.30500030517578" fill="rgb(0, 0, 0)" stroke="rgb(66, 66, 66)" stroke-width="1px" opacity="0.25"></line><line x1="0" y1="140.47875022888192" x2="837.5810005264282" y2="140.47875022888192" fill="rgb(0, 0, 0)" stroke="rgb(66, 66, 66)" stroke-width="1px" opacity="0.25"></line><line x1="0" y1="93.65250015258793" x2="837.5810005264282" y2="93.65250015258793" fill="rgb(0, 0, 0)" stroke="rgb(66, 66, 66)" stroke-width="1px" opacity="0.25"></line><line x1="0" y1="46.82625007629399" x2="837.5810005264282" y2="46.82625007629399" fill="rgb(0, 0, 0)" stroke="rgb(66, 66, 66)" stroke-width="1px" opacity="0.25"></line><line x1="0" y1="0" x2="837.5810005264282" y2="0" fill="rgb(0, 0, 0)" stroke="rgb(66, 66, 66)" stroke-width="1px" opacity="0.25"></line></g></g></g><g><g><line x1="0" y1="1030.1775016784666" x2="837.5810005264282" y2="1030.1775016784666" fill="rgb(0, 0, 0)" stroke="rgb(153, 153, 153)" stroke-width="1.5px"></line></g></g><g><g><line x1="59.8272143233163" y1="0" x2="59.8272143233163" y2="374.61000061035156" fill="rgb(0, 0, 0)" stroke="rgb(153, 153, 153)" stroke-width="1.5px"></line></g></g><g><g><g><g><g><path style="fill: none;" stroke="rgb(255, 112, 67)" stroke-width="2px" d="M60.96393139545931,-20.241473821598365L62.10064846760232,12.093467906971425L63.237365539745326,20.987820661215828L64.37408261188834,30.82500329014766L65.51079968403134,39.059952855534625L66.64751675617435,48.38340392605175L67.78423382831737,53.6123594985816L68.92095090046037,54.99099363475976L70.05766797260338,57.230083885752705L71.1943850447464,66.02731984467034L72.3311021168894,67.30128413505707L73.46781918903241,71.86082622075644L74.60453626117541,72.03868601643791L75.74125333331843,72.16460474932228L76.87797040546144,75.7116626820916L78.01468747760445,76.2246493234978L79.15140454974747,73.78346880428776L80.28812162189048,79.11762605183009L81.42483869403348,86.19137857040982L82.5615557661765,92.78453184351426L84.35637219587598,93.24343869972748L85.49308926801899,99.80064648009791L86.62980634016199,102.90263697810201L87.766523412305,107.48055891021266L88.90324048444802,109.1795082036687L90.03995755659103,112.6542319411896L91.17667462873403,119.74000308980668L92.31339170087705,123.00101310306188L93.45010877302006,125.93330647926784L94.58682584516308,125.1041610266635L95.72354291730608,125.76630446680778L96.86025998944909,128.97394452086866L97.9969770615921,127.78285456410582L99.1336941337351,129.15055622453454L100.27041120587812,133.11281896762304L101.40712827802112,133.07992704260914L102.54384535016413,132.80698674143304L103.68056242230715,130.50627384269205L104.81727949445015,133.30051570428517L105.95399656659316,138.2954102570639L107.74881299629266,145.34438847365917L108.88553006843567,150.13033549195276L110.02224714057868,150.54998922476832L111.15896421272167,153.91075659315112L112.29568128486468,155.9887320203379L113.4323983570077,155.48670481146178L114.56911542915071,157.1354360432792L115.70583250129373,155.72018603183474L116.84254957343674,159.88237668532904L117.97926664557973,164.67050545463383L119.11598371772274,170.29874145303745L120.25270078986576,171.5606832524579L121.38941786200877,168.6708011068829L122.52613493415178,163.08487132939038L123.66285200629478,163.72421952676137L124.7995690784378,165.3580232655985L125.93628615058081,168.46790814489339L127.07300322272383,166.82871176792648L128.20972029486683,170.5147076565159L129.34643736700983,171.592888403417L131.14125379670932,174.81237452000514L132.27797086885232,178.32130649151426L133.41468794099535,179.53560238392157L134.55140501313835,182.48916989033734L135.68812208528138,182.0461672899583L136.82483915742438,185.2737259168734L137.96155622956738,184.35129813467776L139.09827330171038,184.9484958505369L140.2349903738534,188.1307440281485L141.3717074459964,189.83766278983717L142.50842451813944,191.56212499588653L143.64514159028244,193.07769113820603L144.78185866242544,195.21447290657207L145.91857573456844,192.757925580213L147.05529280671146,192.40859421472356L148.19200987885446,191.0062071382718L149.3287269509975,191.8510229115057L150.4654440231405,194.3065872082232L151.6021610952835,192.719046238439L152.73887816742652,193.79687412777105L154.533694597126,201.80002880117917L155.67041166926901,204.9102700900835L156.80712874141201,206.90489302950036L157.94384581355504,204.8577159065032L159.08056288569801,205.73188314603823L160.21727995784104,208.60811000411556L161.35399702998404,205.2735167384304L162.49071410212707,207.78693514700714L163.62743117427007,210.6366608607439L164.76414824641307,213.11441792395752L165.9008653185561,210.8961494749945L167.0375823906991,208.9559107348366L168.17429946284213,209.80515030497259L169.31101653498513,211.371992990389L170.44773360712813,210.16686601843548L171.58445067927113,210.22801127232643L172.72116775141416,208.62393355194013L173.85788482355716,208.4829299596295L174.99460189570019,210.74009580937656L176.13131896784319,209.94183898932835L177.92613539754268,214.08052951582388L179.06285246968568,216.23129485454376L180.19956954182868,220.30263426555348L181.3362866139717,222.88659866397057L182.4730036861147,222.25927908661072L183.60972075825774,223.47562361798586L184.74643783040074,222.55289834668977L185.88315490254374,223.26068923782242L187.01987197468674,226.68093246947095L188.15658904682977,227.24861300784895L189.29330611897277,225.72334056132473L190.4300231911158,225.3324501798586L191.56674026325877,226.23954962376513L192.7034573354018,223.5545505538399L193.8401744075448,226.728592465039L194.97689147968782,227.40546388630392L196.11360855183082,228.3925072199031L197.25032562397382,228.55138176939L198.38704269611685,227.78504983783677L199.52375976825985,227.52346073803605L201.31857619795935,233.87343293005569L202.45529327010235,234.01089220609498L203.59201034224537,232.8636035251585L204.72872741438837,234.38144202241884L205.86544448653137,233.31314819040853L207.00216155867437,235.8940175667942L208.1388786308174,235.59365040854237L209.2755957029604,235.2596537615313L210.41231277510343,238.68870814368285L211.54902984724643,241.47585835126242L212.68574691938946,239.70665738491212L213.82246399153246,237.96639518321697L214.95918106367543,240.43850708625456L216.0958981358185,242.47846829074027L217.23261520796146,237.41344548264476L218.36933228010452,239.19910623136957L219.5060493522475,238.0414265948622L220.6427664243905,237.53227930086396L221.77948349653352,236.84725114919038L222.91620056867652,236.12841361211395L224.711016998376,242.3148977244861L225.847734070519,248.08284076202597L226.98445114266204,251.05333979753348L228.12116821480504,253.03279983865647L229.25788528694804,251.1194943366714L230.39460235909107,248.8541484378633L231.53131943123407,249.11123373966595L232.6680365033771,248.9560119659702L233.8047535755201,249.74110330704184L234.94147064766312,250.2299539230093L236.07818771980612,247.21092122264645L237.2149047919491,246.36610219494793L238.35162186409215,247.94701446977973L239.48833893623512,247.9457745996594L240.62505600837818,248.1788993448556L241.76177308052115,248.7405371532137L242.89849015266415,245.37107881360814L244.03520722480718,243.78204074864485L245.17192429695018,244.3067643459055L246.3086413690932,246.9265691479614L248.10345779879268,252.96022141703392L249.24017487093573,255.33410311636985L250.3768919430787,258.39127039260666L251.5136090152217,258.40102003492274L252.65032608736473,258.3654504602033L253.78704315950773,257.5734853323821L254.92376023165076,259.6565267011989L256.06047730379373,258.9815458519526L257.19719437593676,258.46982713144985L258.3339114480798,259.35165434100753L259.47062852022276,257.9552751413253L260.6073455923658,260.6092671424334L261.7440626645088,258.7331761005171L262.8807797366518,259.4370067964129L264.0174968087948,258.1879949586799L265.15421388093785,255.8999758525911L266.2909309530809,256.69213536261896L267.42764802522385,255.05370399331048L268.5643650973668,253.7545183251353L269.7010821695099,253.77657760269736L271.49589859920934,257.67418997860403L272.63261567135237,259.2439872863278L273.7693327434954,261.0521666593787L274.9060498156384,265.06112480743985L276.0427668877814,265.55241170382766L277.17948395992437,266.35495616955313L278.31620103206745,266.0910460095046L279.4529181042104,263.78987880784194L280.58963517635345,264.49233785112386L281.7263522484964,268.5523086883377L282.86306932063945,268.5998566288597L283.9997863927825,265.7773713794098L285.13650346492545,267.0322464861313L286.2732205370685,266.1990221786979L287.4099376092115,267.3382894722375L288.5466546813545,264.1402194440019L289.6833717534975,264.28602646814335L290.8200888256405,264.280802767171L291.95680589778357,264.05538836875144L293.09352296992654,260.4556949448974L294.88833939962603,265.9199438551419L296.02505647176906,269.36367941481274L297.16177354391203,270.65003104177924L298.29849061605506,270.0365821251459L299.43520768819803,268.15892781653713L300.5719247603411,269.61685864518785L301.7086418324841,268.7290726523878L302.8453589046271,271.6996974245773L303.9820759767701,273.170232512536L305.1187930489131,271.73581580421126L306.25551012105615,272.3864030465504L307.3922271931991,273.38621169070205L308.52894426534215,272.058924386079L309.6656613374852,272.15071258932113L310.80237840962815,273.24062198760953L311.9390954817712,274.03235677549543L313.0758125539142,272.8159024325584L314.21252962605723,273.8493781426433L315.3492466982002,272.49823695494104L316.4859637703432,272.7683630919592L318.2807802000427,274.0765604746553L319.4174972721857,278.15245360352935L320.5542143443287,279.74774268107234L321.6909314164717,279.946059862009L322.8276484886148,277.86957847133243L323.96436556075776,277.71155629130686L325.1010826329007,278.11654403810667L326.23779970504376,281.37984535674065L327.3745167771868,278.81184000554094L328.5112338493298,279.345822973095L329.6479509214728,279.63220645419557L330.7846679936158,279.33895629934506L331.92138506575884,278.67695950516526L333.0581021379018,277.36348926615756L334.19481921004484,278.81352624938154L335.33153628218787,278.8593813228808L336.46825335433084,279.12237068596187L337.60497042647387,277.6986146025232L338.74168749861684,276.6776117442149L339.8784045707599,277.29560043014254L341.67322100045936,278.6560372421065L342.8099380726024,281.9237002498553L343.9466551447454,283.73873858897826L345.0833722168884,287.16620265167916L346.2200892890314,287.3507492973284L347.3568063611744,287.4072413678959L348.4935234333175,287.78789815336L349.63024050546045,288.9418976984728L350.7669575776034,286.0332915591064L351.90367464974645,286.8330628658666L353.0403917218895,283.7125226528809L354.1771087940325,281.40845472613023L355.3138258661755,282.1514858343092L356.4505429383185,282.6548673619451L357.58726001046153,284.0016689355967L358.7239770826045,283.86458464344355L359.86069415474753,282.34375372685287L360.99741122689056,281.32104172056495L362.1341282990336,280.8269612844603L363.27084537117656,281.6824401322469L365.065661800876,283.4097947547799L366.2023788730191,285.93712586425926L367.33909594516206,290.09764269962875L368.4758130173051,291.59743202367025L369.61253008944806,291.02369186654767L370.7492471615911,291.8642200993626L371.8859642337341,292.00538637985244L373.0226813058771,292.66205290208416L374.1593983780201,291.13106851691873L375.29611545016314,290.9977710906912L376.43283252230617,290.61798791895194L377.56954959444914,287.7307718119439L378.70626666659217,289.9314727499266L379.8429837387352,287.7822683168382L380.97970081087817,287.9146242832643L382.1164178830212,286.99883446720474L383.2531349551642,286.4092139417328L384.3898520273072,285.2228343385205L385.5265690994502,286.0483011987774L386.6632861715932,284.90471436437196L388.45810260129275,289.28203996219844L389.5948196734357,290.2286625656341L390.73153674557875,294.1534575617021L391.8682538177218,294.10757466773606L393.00497088986475,292.57637702417196L394.1416879620078,294.3420572145276L395.27840503415075,295.0351216946116L396.41512210629384,295.08519728942895L397.5518391784368,294.59253255459214L398.6885562505798,294.98831326431986L399.8252733227228,296.57844197878694L400.96199039486584,296.7088656464404L402.09870746700886,296.5394298407305L403.23542453915184,295.8007810229689L404.37214161129486,294.6485056843418L405.5088586834379,292.57181360286415L406.64557575558086,291.83892952091406L407.7822928277239,292.835077665025L408.9190098998669,293.8907909902613L410.0557269720099,295.0619114979568L411.8505434017094,295.78423287906804L412.98726047385236,295.6524244880896L414.12397754599544,296.50680455793446L415.2606946181384,297.9188467478494L416.39741169028144,300.11091737682324L417.5341287624244,298.3467028977078L418.67084583456744,298.40243314690946L419.8075629067105,299.4764015392576L420.94427997885344,298.94384754967956L422.0809970509965,299.8749565462673L423.21771412313956,299.80614654918713L424.35443119528253,296.3527537607976L425.4911482674255,296.2995937120145L426.62786533956853,299.2914449416851L427.7645824117115,300.30487969097027L428.9012994838546,299.8479829230731L430.03801655599756,298.5604214136706L431.1747336281406,296.94556432433336L432.31145070028356,298.29064142682086L433.44816777242653,295.7821069864479L435.2429842021261,297.9964448600215L436.3797012742691,300.60359959452L437.5164183464121,301.9277048035783L438.65313541855505,303.312533363668L439.7898524906981,303.4023030599692L440.92656956284117,302.20132573016417L442.06328663498414,302.7726437832529L443.2000037071271,302.0608597482851L444.33672077927014,301.9218269259068L445.4734378514131,302.430782231776L446.6101549235562,300.5187124759796L447.74687199569917,300.90809538980545L448.8835890678422,301.9380709485005L450.02030613998517,300.7982677633784L451.15702321212814,299.80741368908144L452.2937402842712,299.1886524978302L453.43045735641425,299.7733680114952L454.5671744285572,302.02488821453375L455.7038915007002,301.5765477989167L456.8406085728432,301.69710881953205L458.6354250025428,305.2778996823504L459.77214207468575,305.61939600297984L460.9088591468287,306.6478133854082L462.04557621897175,307.6442696191638L463.18229329111483,307.0538877869502L464.3190103632578,306.90854176784876L465.4557274354008,307.2500189513932L466.5924445075438,304.75161657739636L467.7291615796868,304.9054643990557L468.86587865182986,306.077713130346L470.00259572397283,304.97013202826383L471.13931279611586,304.0501900295871L472.27602986825883,304.91744636563413L473.4127469404018,306.07362641980524L474.5494640125449,303.7797593569126L475.6861810846879,302.1685433410921L476.8228981568309,303.0387790988105L477.95961522897386,303.8854205860374L479.0963323011169,306.0579278708552L480.23304937326,305.528463675322L482.0278658029594,306.42822407476143L483.16458287510244,308.7662387555605L484.3012999472454,308.855439814941L485.4380170193885,309.3534984777458L486.57473409153147,310.33772918912615L487.7114511636745,308.70086616741327L488.84816823581747,308.4120481556727L489.98488530796044,307.9614374281135L491.1216023801035,307.51844938888075L492.2583194522465,307.17124686886785L493.3950365243895,307.4098302046141L494.5317535965325,307.24134138717096L495.66847066867547,308.7732649813084L496.80518774081855,307.95606597362695L497.9419048129616,307.1350168860337L499.07862188510455,306.029380903863L500.2153389572475,304.59050831943955L501.35205602939055,303.3406561742581L502.48877310153364,305.5792577793769L503.6254901736766,306.8475736238037L505.4203066033761,309.97971543634975L506.5570236755191,311.8039384527027L507.69374074766205,310.95334766060387L508.83045781980513,310.70463850165635L509.96717489194816,310.37330179278376L511.10389196409113,311.35820032674L512.2406090362341,311.3540403713036L513.3773261083771,310.95945600800627L514.5140431805202,310.20146897903766L515.6507602526632,310.40304523053356L516.7874773248062,309.6758877172672L517.9241943969491,309.36282417881813L519.0609114690922,310.2215226640039L520.1976285412352,309.7699625346282L521.3343456133782,308.52434294892583L522.4710626855212,309.67446911741376L523.6077797576642,310.5664390794804L524.7444968298072,310.61213576706433L525.8812139019503,309.72448735589984L527.0179309740932,308.9737489031277L528.8127474037927,310.59344768256705L529.9494644759358,313.7692011494592L531.0861815480788,312.61998100367214L532.2228986202218,313.63339865032447L533.3596156923647,314.0403364747026L534.4963327645078,312.302733505457L535.6330498366508,312.17086176240565L536.7697669087938,310.33752275559806L537.9064839809369,310.9163989669333L539.0432010530799,308.82025038924945L540.1799181252228,310.2406410547609L541.3166351973658,310.3782965960777L542.4533522695089,311.7087849061926L543.5900693416519,310.96971628458925L544.7267864137949,313.29795597904683L545.8635034859378,313.2344821853192L547.0002205580809,312.58993362880057L548.136937630224,310.9285376428417L549.2736547023669,310.92958286670347L550.4103717745099,310.94784951287306L552.2051882042094,312.80267437305423L553.3419052763525,313.33413525291456L554.4786223484955,312.88578232923555L555.6153394206385,313.13200062059013L556.7520564927814,312.7597902371816L557.8887735649245,315.12415806738676L559.0254906370675,316.1238068662715L560.1622077092105,317.17941006326646L561.2989247813535,315.8164258096928L562.4356418534965,313.4661189335119L563.5723589256395,311.01873151088256L564.7090759977826,311.49926416053023L565.8457930699255,311.75263965405446L566.9825101420686,312.0368719750778L568.1192272142116,311.4371675691346L569.2559442863545,310.49861263733806L570.3926613584977,312.4873811593972L571.5293784306406,312.65435761026356L572.6660955027836,310.9947230673069L573.8028125749266,309.93854375981044L575.597629004626,309.9335842946183L576.7343460767692,311.3456770504973L577.8710631489122,314.140178513057L579.0077802210551,315.15097665391687L580.1444972931981,315.0595783954625L581.2812143653412,315.08902951284915L582.4179314374842,316.5151370549586L583.5546485096272,315.96039980089733L584.6913655817701,315.9143893082781L585.8280826539132,316.18067067726497L586.9647997260562,314.39064824107913L588.1015167981992,314.0512646267799L589.2382338703422,312.1050739721438L590.3749509424853,311.7285698356783L591.5116680146282,313.3353456497746L592.6483850867712,314.4955893042262L593.7851021589142,313.6209258021935L594.9218192310573,312.5917716329714L596.0585363032003,312.35549354391406L597.1952533753432,313.5242531071285L598.9900698050428,314.3478690032232L600.1267868771859,315.35449985293604L601.2635039493288,316.4951660929967L602.4002210214718,317.75445762394924L603.5369380936148,316.23545098189845L604.6736551657579,317.10478921091124L605.8103722379009,315.51396012576254L606.9470893100438,316.2446612544654L608.0838063821868,316.3076729281755L609.2205234543299,318.59311099833275L610.3572405264729,318.6193945544261L611.4939575986159,317.33207366060657L612.6306746707589,317.7750881479367L613.7673917429019,316.45919083957557L614.9041088150449,317.12502382486133L616.0408258871879,317.0974911297328L617.1775429593309,314.96331462203176L618.314260031474,315.0279219743882L619.4509771036169,315.78975007227814L620.5876941757599,314.93373040882545L622.3825106054595,316.4973832520854L623.5192276776024,317.4627040807005L624.6559447497455,317.9367963471236L625.7926618218885,318.660162953158L626.9293788940315,320.34444472268115L628.0660959661745,318.8344838401599L629.2028130383175,320.0781386075657L630.3395301104605,318.3844073943907L631.4762471826035,319.08065266840885L632.6129642547465,318.3734678750534L633.7496813268896,317.822442784151L634.8863983990326,317.2487820504789L636.0231154711755,316.3982869631198L637.1598325433185,315.49378031354746L638.2965496154616,315.3593082164588L639.4332666876046,315.22898871156275L640.5699837597476,317.24596910376135L641.7067008318905,316.4621556593914L642.8434179040336,317.4554335211098L643.9801349761767,316.4440611239554L645.7749514058761,317.5645701374364L646.9116684780191,318.7616845158779L648.0483855501622,318.98930677149406L649.1851026223051,317.39240733668566L650.3218196944482,316.9949808677466L651.4585367665912,320.5460056876859L652.5952538387342,320.79339056869424L653.7319709108772,321.39433079755315L654.8686879830202,320.4471149232296L656.0054050551632,319.2367071672084L657.1421221273063,317.9499949351058L658.2788391994492,316.1740784149789L659.4155562715922,316.456700763834L660.5522733437352,317.877228162426L661.6889904158783,318.85360172544443L662.8257074880213,318.0531611881214L663.9624245601642,318.32306734636666L665.0991416323072,317.1341593608608L666.2358587044503,317.06034735243855L667.3725757765933,315.8209050696494L669.1673922062928,316.54301614942193L670.3041092784358,318.5686394906442L671.4408263505787,318.9219102642118L672.5775434227219,318.57036847440446L673.7142604948649,318.42732202840773L674.8509775670078,318.9220573857136L675.9876946391508,319.63063606662655L677.1244117112939,318.7068518453783L678.2611287834369,319.307522769041L679.3978458555799,319.6499732124419L680.5345629277228,320.3516273169431L681.6712799998659,319.659990823182L682.8079970720089,318.66114108461124L683.9447141441519,317.98814720461684L685.081431216295,317.1465783837367L686.218148288438,319.0368371873076L687.3548653605809,319.59315332106013L688.4915824327239,318.28653538452704L689.628299504867,317.37290304624406L690.76501657701,316.9328158924862L692.5598330067095,319.82875934185984L693.6965500788524,320.89892666557506L694.8332671509955,319.3349269964621L695.9699842231386,320.35987184965387L697.1067012952815,319.0219661715408L698.2434183674245,319.3831402764828L699.3801354395675,318.86378586829085L700.5168525117106,318.97409248408803L701.6535695838536,319.40619584627143L702.7902866559965,317.27972504979317L703.9270037281395,318.33031555726893L705.0637208002826,318.7277836483108L706.2004378724256,319.41151704198467L707.3371549445686,319.1606103111645L708.4738720167117,318.48615044216024L709.6105890888546,319.5113020916184L710.7473061609976,319.9818160695917L711.8840232331406,319.1580154207505L713.0207403052837,319.05298770248714L714.1574573774267,320.9147097565777L715.9522738071261,322.31792732246504L717.0889908792691,321.64699061445435L718.2257079514122,321.8632628567228L719.3624250235551,322.9269378764361L720.4991420956982,322.9648189443862L721.6358591678412,323.3584239039769L722.7725762399841,321.9046546587839L723.9092933121273,321.5540984210748L725.0460103842702,322.68673439980887L726.1827274564132,322.2764620965236L727.3194445285562,322.9775628295219L728.4561616006991,322.0828069120447L729.5928786728423,320.49939442480706L730.7295957449853,321.4507300106804L731.8663128171282,320.307350394584L733.0030298892713,320.1096245042932L734.1397469614143,320.0733141349286L735.2764640335573,320.07010522199494L736.4131811057003,319.9115231461887L737.5498981778433,319.1153484397963L739.3447146075428,319.3510837206542L740.4814316796859,319.9989351788047L741.6181487518288,320.7254761984124L742.7548658239718,321.52080028204546L743.8915828961149,322.05928645378845L745.0282999682578,323.02438940277335L746.1650170404009,323.57801901520247L747.3017341125438,323.5104273899949L748.4384511846869,321.0642449111322L749.5751682568299,319.65519238284764L750.7118853289728,320.59650944554835L751.848602401116,320.43430618139405L752.985319473259,319.45911707354867L754.1220365454019,319.882403145902L755.2587536175449,320.1597973816344L756.395470689688,320.99843329562617L757.532187761831,321.4508845010735L758.668904833974,320.9183730683051L759.8056219061169,320.4742732008766L760.94233897826,321.35855697958" fill="none"></path></g></g></g></g><g opacity="0.2"><g><g><g><path style="fill: none;" stroke="rgb(255, 112, 67)" stroke-width="2px" d="M60.96393139545931,-20.241473821598365L62.10064846760232,31.494432944113296L63.237365539745326,29.52639930529048L64.37408261188834,42.39353006177143L65.51079968403134,49.811503008103585L66.64751675617435,61.281093198962566L67.78423382831737,61.08984963058819L68.92095090046037,57.001055440195245L70.05766797260338,60.53230708507644L71.1943850447464,79.09018997859589L72.3311021168894,69.20067580828713L73.46781918903241,78.67532652262439L74.60453626117541,72.30489496686828L75.74125333331843,72.35323616074224L76.87797040546144,81.02808014779752L78.01468747760445,76.99376748768286L79.15140454974747,70.122731051255L80.28812162189048,87.1175075811962L81.42483869403348,96.80092973328014L82.5615557661765,102.67365911284655L84.35637219587598,93.93177381650416L85.49308926801899,109.63624238293873L86.62980634016199,107.55556148171677L87.766523412305,114.34738757852897L88.90324048444802,111.72792006844843L90.03995755659103,117.8663027293615L91.17667462873403,130.3686416821861L92.31339170087705,127.8925231165263L93.45010877302006,130.33174384252018L94.58682584516308,123.86044330601321L95.72354291730608,126.75951940745021L96.86025998944909,133.78540396374686L97.9969770615921,125.99621977115389L99.1336941337351,131.20210861721174L100.27041120587812,139.05621291197033L101.40712827802112,133.0305891559365L102.54384535016413,132.39757629389172L103.68056242230715,127.05520451593797L104.81727949445015,137.49187848111117L105.95399656659316,145.78775206954018L107.74881299629266,155.91785578441798L108.88553006843567,157.30925601363563L110.02224714057868,151.1794698236886L111.15896421272167,158.95190764426982L112.29568128486468,159.10569516057788L113.4323983570077,154.73366399822592L114.56911542915071,159.6085328908512L115.70583250129373,153.59731101474748L116.84254957343674,166.12566266543038L117.97926664557973,171.85269860849442L119.11598371772274,178.74109545057448L120.25270078986576,173.45359595157927L121.38941786200877,164.33597788853288L122.52613493415178,154.70597666316647L123.66285200629478,164.68324182281688L124.7995690784378,167.80872887385297L125.93628615058081,173.13273546383382L127.07300322272383,164.36991720247673L128.20972029486683,176.04370148939918L129.34643736700983,173.21015952376823L131.14125379670932,179.6416036948872L132.27797086885232,183.58470444877779L133.41468794099535,181.35704622253255L134.55140501313835,186.91952114996096L135.68812208528138,181.38166338938984L136.82483915742438,190.11506385724624L137.96155622956738,182.96765646138422L139.09827330171038,185.84429242432546L140.2349903738534,192.90411629456594L141.3717074459964,192.39804093237035L142.50842451813944,194.1488183049605L143.64514159028244,195.35104035168524L144.78185866242544,198.41964555912136L145.91857573456844,189.07310459067412L147.05529280671146,191.88459716648958L148.19200987885446,188.90262652359434L149.3287269509975,193.1182465713564L150.4654440231405,197.98993365329943L151.6021610952835,190.3377347837627L152.73887816742652,195.4136159617692L154.533694597126,213.80476081129154L155.67041166926901,209.57563202344L156.80712874141201,209.89682743862568L157.94384581355504,201.78695022200736L159.08056288569801,207.04313400534056L160.21727995784104,212.9224502912316L161.35399702998404,200.27162683990264L162.49071410212707,211.55706275987222L163.62743117427007,214.911249431349L164.76414824641307,216.83105351877794L165.9008653185561,207.56874680154988L167.0375823906991,206.04555262459962L168.17429946284213,211.07900966017633L169.31101653498513,213.72225701851357L170.44773360712813,208.35917556050526L171.58445067927113,210.31972915316283L172.72116775141416,206.21781697136066L173.85788482355716,208.2714245711636L174.99460189570019,214.12584458399715L176.13131896784319,208.74445375925598L177.92613539754268,220.28856530556732L179.06285246968568,219.45744286262334L180.19956954182868,226.40964338206823L181.3362866139717,226.7625452615962L182.4730036861147,221.31829972057085L183.60972075825774,225.30014041504865L184.74643783040074,221.1688104397458L185.88315490254374,224.32237557452163L187.01987197468674,231.81129731694364L188.15658904682977,228.10013381541603L189.29330611897277,223.43543189153843L190.4300231911158,224.74611460765936L191.56674026325877,227.60019878962476L192.7034573354018,219.52705194895225L193.8401744075448,231.48965533183764L194.97689147968782,228.42077101820132L196.11360855183082,229.87307222030176L197.25032562397382,228.78969359362054L198.38704269611685,226.63555194050696L199.52375976825985,227.13107708833513L201.31857619795935,243.39839121808518L202.45529327010235,234.21708112015403L203.59201034224537,231.14267050375383L204.72872741438837,236.65819976830926L205.86544448653137,231.71070744239296L207.00216155867437,239.76532163137244L208.1388786308174,235.1430996711647L209.2755957029604,234.75865879101457L210.41231277510343,243.83228971691005L211.54902984724643,245.65658366263187L212.68574691938946,237.05285593538656L213.82246399153246,235.35600188067428L214.95918106367543,244.14667494081095L216.0958981358185,245.53841009746884L217.23261520796146,229.8159112705016L218.36933228010452,241.8775973544566L219.5060493522475,236.30490714010102L220.6427664243905,236.7685583598668L221.77948349653352,235.8197089216801L222.91620056867652,235.0501573064994L224.711016998376,251.59462389304417L225.847734070519,256.73475531833583L226.98445114266204,255.50908835079463L228.12116821480504,256.00198990034096L229.25788528694804,248.24953608369378L230.39460235909107,245.45612958965103L231.53131943123407,249.4968616923702L232.6680365033771,248.72317930542658L233.8047535755201,250.91874031864927L234.94147064766312,250.96322984696053L236.07818771980612,242.68237217210208L237.2149047919491,245.0988736534L238.35162186409215,250.31838288202744L239.48833893623512,247.94391479447904L240.62505600837818,248.52858646264986L241.76177308052115,249.58299386575072L242.89849015266415,240.3168913042L244.03520722480718,241.39848365119997L245.17192429695018,245.09384974179648L246.3086413690932,250.85627635104538L248.10345779879268,262.0106998206429L249.24017487093573,258.89492566537365L250.3768919430787,262.9770213069619L251.5136090152217,258.4156444983969L252.65032608736473,258.31209609812413L253.78704315950773,256.38553764065045L254.92376023165076,262.7810887544242L256.06047730379373,257.9690745780831L257.19719437593676,257.7022490506956L258.3339114480798,260.674395155344L259.47062852022276,255.8607063418017L260.6073455923658,264.5902551440954L261.7440626645088,255.91903953764267L262.8807797366518,260.49275284025634L264.0174968087948,256.3144772020805L265.15421388093785,252.4679471934578L266.2909309530809,257.8803746276608L267.42764802522385,252.59605693934782L268.5643650973668,251.8057398228725L269.7010821695099,253.80966651904055L271.49589859920934,263.52060854246383L272.63261567135237,261.5986832479134L273.7693327434954,263.76443571895516L274.9060498156384,271.07456202953153L276.0427668877814,266.28934204840925L277.17948395992437,267.5587728681412L278.31620103206745,265.6951807694318L279.4529181042104,260.3381280053477L280.58963517635345,265.54602641604697L281.7263522484964,274.64226494415834L282.86306932063945,268.6711785396428L283.9997863927825,261.54364350523474L285.13650346492545,268.91455914621383L286.2732205370685,264.9491857175476L287.4099376092115,269.047190412547L288.5466546813545,259.34311440164856L289.6833717534975,264.5047370043553L290.8200888256405,264.27296721571247L291.95680589778357,263.717266771122L293.09352296992654,255.05615480911638L294.88833939962603,274.1163172205088L296.02505647176906,274.52928275431896L297.16177354391203,272.579558482229L298.29849061605506,269.11640875019566L299.43520768819803,265.3424463536239L300.5719247603411,271.8037548881639L301.7086418324841,267.3973936631878L302.8453589046271,276.1556345828617L303.9820759767701,275.3760351444739L305.1187930489131,269.58419074172434L306.25551012105615,273.362283910059L307.3922271931991,274.88592465692955L308.52894426534215,270.0679934291443L309.6656613374852,272.2883948941844L310.80237840962815,274.8754860850422L311.9390954817712,275.21995895732425L313.0758125539142,270.991220918153L314.21252962605723,275.39959170777047L315.3492466982002,270.4715251733878L316.4859637703432,273.17355229748637L318.2807802000427,276.03885654869964L319.4174972721857,284.26629329684056L320.5542143443287,282.140676297387L321.6909314164717,280.243535633414L322.8276484886148,274.75485638531745L323.96436556075776,277.4745230212684L325.1010826329007,278.72402565830635L326.23779970504376,286.2747973346918L327.3745167771868,274.9598319787415L328.5112338493298,280.14679742442604L329.6479509214728,280.0617816758463L330.7846679936158,278.89908106706935L331.92138506575884,277.68396431389556L333.0581021379018,275.39328390764604L334.19481921004484,280.9885817242175L335.33153628218787,278.9281639331298L336.46825335433084,279.5168547305834L337.60497042647387,275.5629804773653L338.74168749861684,275.14610745675236L339.8784045707599,278.222583459034L341.67322100045936,280.6966924600524L342.8099380726024,286.82519476147854L343.9466551447454,286.46129609766285L345.0833722168884,292.30739874573055L346.2200892890314,287.6275692658023L347.3568063611744,287.49197947374705L348.4935234333175,288.35888333155617L349.63024050546045,290.6728970161421L350.7669575776034,281.67038235005657L351.90367464974645,288.032719826007L353.0403917218895,279.03171233340254L354.1771087940325,277.95235283600414L355.3138258661755,283.26603249657774L356.4505429383185,283.40993965339885L357.58726001046153,286.0218712960741L358.7239770826045,283.6589582052138L359.86069415474753,280.0625073519668L360.99741122689056,279.7869737111332L362.1341282990336,280.0858406303032L363.27084537117656,282.9656584039267L365.065661800876,286.0008266885793L366.2023788730191,289.72812252847825L367.33909594516206,296.3384179526829L368.4758130173051,293.8471160097324L369.61253008944806,290.16308163086387L370.7492471615911,293.12501244858504L371.8859642337341,292.21713580058713L373.0226813058771,293.64705268543185L374.1593983780201,288.8345919391704L375.29611545016314,290.79782495134987L376.43283252230617,290.04831316134323L377.56954959444914,283.39994765143183L378.70626666659217,293.2325241569006L379.8429837387352,284.55846166720585L380.97970081087817,288.1131582329035L382.1164178830212,285.62514974311534L383.2531349551642,285.5247831535248L384.3898520273072,283.44326493370227L385.5265690994502,287.2865014891627L386.6632861715932,283.18933411276385L388.45810260129275,295.84802835893834L389.5948196734357,291.64859647078765L390.73153674557875,300.04065005580424L391.8682538177218,294.03875032678707L393.00497088986475,290.2795805588257L394.1416879620078,296.99057750006114L395.27840503415075,296.0747184147376L396.41512210629384,295.1603106816551L397.5518391784368,293.8535354523369L398.6885562505798,295.5819843289114L399.8252733227228,298.9636350504875L400.96199039486584,296.90450114792066L402.09870746700886,296.28527613216556L403.23542453915184,294.69280779632663L404.37214161129486,292.92009267640105L405.5088586834379,289.4567754806476L406.64557575558086,290.73960339798896L407.7822928277239,294.3292998811912L408.9190098998669,295.4743609781158L410.0557269720099,296.8185922595003L411.8505434017094,296.8677149507348L412.98726047385236,295.454711901622L414.12397754599544,297.7883746627017L415.2606946181384,300.0369100327216L416.39741169028144,303.39902332028396L417.5341287624244,295.7003811790346L418.67084583456744,298.4860285207119L419.8075629067105,301.0873541277797L420.94427997885344,298.1450165653123L422.0809970509965,301.27162004114916L423.21771412313956,299.70293155356694L424.35443119528253,291.17266457821324L425.4911482674255,296.2198536388396L426.62786533956853,303.7792217861911L427.7645824117115,301.825031814898L428.9012994838546,299.1626377712273L430.03801655599756,296.62907914956713L431.1747336281406,294.5232786903275L432.31145070028356,300.30825708055227L433.44816777242653,292.0193053258881L435.2429842021261,301.3179516703817L436.3797012742691,304.5143316962676L437.5164183464121,303.9138626171657L438.65313541855505,305.38977620380274L439.7898524906981,303.5369576044209L440.92656956284117,300.39985973545663L442.06328663498414,303.629620862886L443.2000037071271,300.9931836958335L444.33672077927014,301.7132776923395L445.4734378514131,303.19421519058005L446.6101549235562,297.6506078422849L447.74687199569917,301.49216976054413L448.8835890678422,303.483034286543L450.02030613998517,299.08856298569526L451.15702321212814,298.32113257763604L452.2937402842712,298.26051071095344L453.43045735641425,300.6504412819927L454.5671744285572,305.40216851909145L455.7038915007002,300.9040371754909L456.8406085728432,301.8779503504552L458.6354250025428,310.64908597657814L459.77214207468575,306.131640483924L460.9088591468287,308.1904394590506L462.04557621897175,309.13895396979706L463.18229329111483,306.16831503862977L464.3190103632578,306.6905227391967L465.4557274354008,307.7622347267097L466.5924445075438,301.00401301640113L467.7291615796868,305.1362361315446L468.86587865182986,307.8360862272816L470.00259572397283,303.30876037514054L471.13931279611586,302.6702770315719L472.27602986825883,306.2183308697049L473.4127469404018,307.8078965010618L474.5494640125449,300.33895876257384L475.6861810846879,299.7517193173612L476.8228981568309,304.34413273538803L477.95961522897386,305.15538281687805L479.0963323011169,309.31668879808194L480.23304937326,304.73426738202215L482.0278658029594,307.7778646739207L483.16458287510244,312.27326077675934L484.3012999472454,308.98924140401186L485.4380170193885,310.10058647195274L486.57473409153147,311.8140752561967L487.7114511636745,306.24557163484405L488.84816823581747,307.9788211380619L489.98488530796044,307.28552133677476L491.1216023801035,306.85396733003154L492.2583194522465,306.65044308884853L493.3950365243895,307.76770520823356L494.5317535965325,306.98860816100614L495.66847066867547,311.0711503725147L496.80518774081855,306.7302674621046L497.9419048129616,305.90344325464366L499.07862188510455,304.37092693060686L500.2153389572475,302.43219944280463L501.35205602939055,301.46587795648566L502.48877310153364,308.93716018705527L503.6254901736766,308.7500473904438L505.4203066033761,314.67792815516896L506.5570236755191,314.54027297723223L507.69374074766205,309.67746147245543L508.83045781980513,310.33157476323504L509.96717489194816,309.87629672947514L511.10389196409113,312.83554812767443L512.2406090362341,311.3478004381491L513.3773261083771,310.36757946306034L514.5140431805202,309.06448843558474L515.6507602526632,310.7054096077777L516.7874773248062,308.58515144736793L517.9241943969491,308.8932288711444L519.0609114690922,311.50957039178274L520.1976285412352,309.0926223405645L521.3343456133782,306.6559135703724L522.4710626855212,311.3996583701455L523.6077797576642,311.90439402258016L524.7444968298072,310.68068079844033L525.8812139019503,308.39301473915293L527.0179309740932,307.84764122396973L528.8127474037927,313.02299585172614L529.9494644759358,318.53283134979756L531.0861815480788,310.89615078499173L532.2228986202218,315.15352512030313L533.3596156923647,314.65074321126986L534.4963327645078,309.6963290515887L535.6330498366508,311.9730541478284L536.7697669087938,307.58751424538696L537.9064839809369,311.78471328393607L539.0432010530799,305.67602752272387L540.1799181252228,312.3712270530282L541.3166351973658,310.58477990805295L542.4533522695089,313.704517371365L543.5900693416519,309.8611133521845L544.7267864137949,316.7903155207332L545.8635034859378,313.13927149472784L547.0002205580809,311.6231107940225L548.136937630224,308.43644366390345L549.2736547023669,310.9311507024963L550.4103717745099,310.9752494821273L552.2051882042094,315.58491166332624L553.3419052763525,314.1313265727049L554.4786223484955,312.2132529437172L555.6153394206385,313.50132805762223L556.7520564927814,312.2014746620689L557.8887735649245,318.67070981269444L559.0254906370675,317.6232800645985L560.1622077092105,318.76281485875916L561.2989247813535,313.7719494293324L562.4356418534965,309.94065861924037L563.5723589256395,307.3476503769384L564.7090759977826,312.22006313500196L565.8457930699255,312.1327028943406L566.9825101420686,312.4632204566128L568.1192272142116,310.5376109602198L569.2559442863545,309.0907802396432L570.3926613584977,315.4705339424859L571.5293784306406,312.9048222865631L572.6660955027836,308.5052712528718L573.8028125749266,308.3542747985657L575.597629004626,309.92614509683017L576.7343460767692,313.4638161843159L577.8710631489122,318.3319307068964L579.0077802210551,316.6671738652067L580.1444972931981,314.9224810077808L581.2812143653412,315.13320618892885L582.4179314374842,318.6542983681229L583.5546485096272,315.1282939198054L584.6913655817701,315.84537356934925L585.8280826539132,316.5800927307455L586.9647997260562,311.7056145868005L588.1015167981992,313.54218920533094L589.2382338703422,309.18578799018997L590.3749509424853,311.1638136309798L591.5116680146282,315.7455093709191L592.6483850867712,316.2359547859037L593.7851021589142,312.3089305491444L594.9218192310573,311.04804037913846L596.0585363032003,312.0010764103281L597.1952533753432,315.27739245195016L598.9900698050428,315.5832928473651L600.1267868771859,316.8644461275053L601.2635039493288,318.20616545308803L602.4002210214718,319.6433949203779L603.5369380936148,313.95694101882236L604.6736551657579,318.4087965544304L605.8103722379009,313.1277164980397L606.9470893100438,317.34071294751993L608.0838063821868,316.4021904387405L609.2205234543299,322.0212681035687L610.3572405264729,318.6588198885661L611.4939575986159,315.4010923198771L612.6306746707589,318.43960987893206L613.7673917429019,314.48534487703364L614.9041088150449,318.12377330279014L616.0408258871879,317.05619208704L617.1775429593309,311.76204986048015L618.314260031474,315.12483300292297L619.4509771036169,316.9324922191131L620.5876941757599,313.6497009136465L622.3825106054595,318.8428625169754L623.5192276776024,318.91068532362306L624.6559447497455,318.64793474675844L625.7926618218885,319.7452128622094L626.9293788940315,322.87086737696563L628.0660959661745,316.5695425163781L629.2028130383175,321.9436207586741L630.3395301104605,315.84381057462815L631.4762471826035,320.1250205794363L632.6129642547465,317.31269068502024L633.7496813268896,316.99590514779766L634.8863983990326,316.3882909499707L636.0231154711755,315.12254433208136L637.1598325433185,314.1370203391889L638.2965496154616,315.157600070826L639.4332666876046,315.0335094542188L640.5699837597476,320.2714396920592L641.7067008318905,315.2864354928365L642.8434179040336,318.9453503136874L643.9801349761767,314.92700252822397L645.7749514058761,319.2453336576582L646.9116684780191,320.55735608354007L648.0483855501622,319.3307401549182L649.1851026223051,314.9970581844732L650.3218196944482,316.39884116433814L651.4585367665912,325.8725429175947L652.5952538387342,321.16446789020665L653.7319709108772,322.2957411408415L654.8686879830202,319.0262911117443L656.0054050551632,317.4210955331764L657.1421221273063,316.0199265869519L658.2788391994492,313.51020363478847L659.4155562715922,316.88063428711666L660.5522733437352,320.0080192603141L661.6889904158783,320.318162069972L662.8257074880213,316.8525003821369L663.9624245601642,318.72792658373464L665.0991416323072,315.35079738260174L666.2358587044503,316.94962933980514L667.3725757765933,313.96174164546574L669.1673922062928,317.6261827690805L670.3041092784358,321.60707450247764L671.4408263505787,319.4518164245633L672.5775434227219,318.0430557896934L673.7142604948649,318.21275235941266L674.8509775670078,319.6641604216725L675.9876946391508,320.69350408799573L677.1244117112939,317.3211755135062L678.2611287834369,320.208529154535L679.3978458555799,320.16364887754344L680.5345629277228,321.40410847369503L681.6712799998659,318.6225360825406L682.8079970720089,317.16286647675497L683.9447141441519,316.97865638462554L685.081431216295,315.88422515241655L686.218148288438,321.87222539266395L687.3548653605809,320.4276275216889L688.4915824327239,316.3266084797274L689.628299504867,316.0024545388196L690.76501657701,316.2726851618495L692.5598330067095,324.17267451592033L693.6965500788524,322.504177651148L694.8332671509955,316.98892749279275L695.9699842231386,321.89728912944156L697.1067012952815,317.01510765437115L698.2434183674245,319.9249014338957L699.3801354395675,318.0847542560027L700.5168525117106,319.13955240778387L701.6535695838536,320.05435088954664L702.7902866559965,314.09001885507587L703.9270037281395,319.90620131848254L705.0637208002826,319.32398578487346L706.2004378724256,320.4371171324956L707.3371549445686,318.7842502149342L708.4738720167117,317.4744606386539L709.6105890888546,321.04902956580554L710.7473061609976,320.6875870365516L711.8840232331406,317.9223144474886L713.0207403052837,318.89544612509235L714.1574573774267,323.70729283771334L715.9522738071261,324.42275367129605L717.0889908792691,320.64058555243855L718.2257079514122,322.1876712201256L719.3624250235551,324.5224504060061L720.4991420956982,323.0216405463116L721.6358591678412,323.94883134336305L722.7725762399841,319.7240007909945L723.9092933121273,321.02826406451095L725.0460103842702,324.38568836791L726.1827274564132,321.6610536415956L727.3194445285562,324.02921392901953L728.4561616006991,320.7406730358289L729.5928786728423,318.1242756939505L730.7295957449853,322.87773338949046L731.8663128171282,318.59228097043933L733.0030298892713,319.8130356688571L734.1397469614143,320.0188485808817L735.2764640335573,320.0652918525943L736.4131811057003,319.67365003247915L737.5498981778433,317.9210863802077L739.3447146075428,319.70468664194095L740.4814316796859,320.9707123660305L741.6181487518288,321.81528772782394L742.7548658239718,322.71378640749526L743.8915828961149,322.8670157114029L745.0282999682578,324.4720438262507L746.1650170404009,324.408463433846L747.3017341125438,323.4090399521838L748.4384511846869,317.39497119283806L749.5751682568299,317.5416135904211L750.7118853289728,322.0084850395997L751.848602401116,320.19100128516266L752.985319473259,317.9963334117806L754.1220365454019,320.51733225443195L755.2587536175449,320.5758887352331L756.395470689688,322.2563871666139L757.532187761831,322.12956130924476L758.668904833974,320.1196059191525L759.8056219061169,319.80812339973363L760.94233897826,322.684982647635" fill="none"></path></g></g></g></g></g></g><g transform="translate(42, 374)" clip-path="url(#clip_1)"><clipPath id="clip_1"><rect width="837" height="25"></rect></clipPath><g><g><line x1="0" y1="0" x2="0" y2="5" style="visibility: inherit;" fill="rgb(0, 0, 0)" stroke="rgb(204, 204, 204)" stroke-width="1px"></line><line x1="59.8272143233163" y1="0" x2="59.8272143233163" y2="5" style="visibility: inherit;" fill="rgb(0, 0, 0)" stroke="rgb(204, 204, 204)" stroke-width="1px"></line><line x1="119.6544286466326" y1="0" x2="119.6544286466326" y2="5" style="visibility: inherit;" fill="rgb(0, 0, 0)" stroke="rgb(204, 204, 204)" stroke-width="1px"></line><line x1="179.4816429699489" y1="0" x2="179.4816429699489" y2="5" style="visibility: inherit;" fill="rgb(0, 0, 0)" stroke="rgb(204, 204, 204)" stroke-width="1px"></line><line x1="239.3088572932652" y1="0" x2="239.3088572932652" y2="5" style="visibility: inherit;" fill="rgb(0, 0, 0)" stroke="rgb(204, 204, 204)" stroke-width="1px"></line><line x1="299.1360716165815" y1="0" x2="299.1360716165815" y2="5" style="visibility: inherit;" fill="rgb(0, 0, 0)" stroke="rgb(204, 204, 204)" stroke-width="1px"></line><line x1="358.9632859398978" y1="0" x2="358.9632859398978" y2="5" style="visibility: inherit;" fill="rgb(0, 0, 0)" stroke="rgb(204, 204, 204)" stroke-width="1px"></line><line x1="418.7905002632141" y1="0" x2="418.7905002632141" y2="5" style="visibility: inherit;" fill="rgb(0, 0, 0)" stroke="rgb(204, 204, 204)" stroke-width="1px"></line><line x1="478.6177145865304" y1="0" x2="478.6177145865304" y2="5" style="visibility: inherit;" fill="rgb(0, 0, 0)" stroke="rgb(204, 204, 204)" stroke-width="1px"></line><line x1="538.4449289098467" y1="0" x2="538.4449289098467" y2="5" style="visibility: inherit;" fill="rgb(0, 0, 0)" stroke="rgb(204, 204, 204)" stroke-width="1px"></line><line x1="598.272143233163" y1="0" x2="598.272143233163" y2="5" style="visibility: inherit;" fill="rgb(0, 0, 0)" stroke="rgb(204, 204, 204)" stroke-width="1px"></line><line x1="658.0993575564793" y1="0" x2="658.0993575564793" y2="5" style="visibility: inherit;" fill="rgb(0, 0, 0)" stroke="rgb(204, 204, 204)" stroke-width="1px"></line><line x1="717.9265718797956" y1="0" x2="717.9265718797956" y2="5" style="visibility: inherit;" fill="rgb(0, 0, 0)" stroke="rgb(204, 204, 204)" stroke-width="1px"></line><line x1="777.7537862031119" y1="0" x2="777.7537862031119" y2="5" style="visibility: inherit;" fill="rgb(0, 0, 0)" stroke="rgb(204, 204, 204)" stroke-width="1px"></line><line x1="837.5810005264282" y1="0" x2="837.5810005264282" y2="5" style="visibility: inherit;" fill="rgb(0, 0, 0)" stroke="rgb(204, 204, 204)" stroke-width="1px"></line></g><g transform="translate(0, 8)"><text style="text-anchor: middle; visibility: hidden; font-family: Roboto, sans-serif; font-size: 12px; font-weight: 200;" x="0" y="0" dx="0em" dy="0.95em" fill="rgb(33, 33, 33)" stroke="none" stroke-width="1px">-1k</text><text style="text-anchor: middle; visibility: inherit; font-family: Roboto, sans-serif; font-size: 12px; font-weight: 200;" x="59.8272143233163" y="0" dx="0em" dy="0.95em" fill="rgb(33, 33, 33)" stroke="none" stroke-width="1px">0</text><text style="text-anchor: middle; visibility: inherit; font-family: Roboto, sans-serif; font-size: 12px; font-weight: 200;" x="119.6544286466326" y="0" dx="0em" dy="0.95em" fill="rgb(33, 33, 33)" stroke="none" stroke-width="1px">1k</text><text style="text-anchor: middle; visibility: inherit; font-family: Roboto, sans-serif; font-size: 12px; font-weight: 200;" x="179.4816429699489" y="0" dx="0em" dy="0.95em" fill="rgb(33, 33, 33)" stroke="none" stroke-width="1px">2k</text><text style="text-anchor: middle; visibility: inherit; font-family: Roboto, sans-serif; font-size: 12px; font-weight: 200;" x="239.3088572932652" y="0" dx="0em" dy="0.95em" fill="rgb(33, 33, 33)" stroke="none" stroke-width="1px">3k</text><text style="text-anchor: middle; visibility: inherit; font-family: Roboto, sans-serif; font-size: 12px; font-weight: 200;" x="299.1360716165815" y="0" dx="0em" dy="0.95em" fill="rgb(33, 33, 33)" stroke="none" stroke-width="1px">4k</text><text style="text-anchor: middle; visibility: inherit; font-family: Roboto, sans-serif; font-size: 12px; font-weight: 200;" x="358.9632859398978" y="0" dx="0em" dy="0.95em" fill="rgb(33, 33, 33)" stroke="none" stroke-width="1px">5k</text><text style="text-anchor: middle; visibility: inherit; font-family: Roboto, sans-serif; font-size: 12px; font-weight: 200;" x="418.7905002632141" y="0" dx="0em" dy="0.95em" fill="rgb(33, 33, 33)" stroke="none" stroke-width="1px">6k</text><text style="text-anchor: middle; visibility: inherit; font-family: Roboto, sans-serif; font-size: 12px; font-weight: 200;" x="478.6177145865304" y="0" dx="0em" dy="0.95em" fill="rgb(33, 33, 33)" stroke="none" stroke-width="1px">7k</text><text style="text-anchor: middle; visibility: inherit; font-family: Roboto, sans-serif; font-size: 12px; font-weight: 200;" x="538.4449289098467" y="0" dx="0em" dy="0.95em" fill="rgb(33, 33, 33)" stroke="none" stroke-width="1px">8k</text><text style="text-anchor: middle; visibility: inherit; font-family: Roboto, sans-serif; font-size: 12px; font-weight: 200;" x="598.272143233163" y="0" dx="0em" dy="0.95em" fill="rgb(33, 33, 33)" stroke="none" stroke-width="1px">9k</text><text style="text-anchor: middle; visibility: inherit; font-family: Roboto, sans-serif; font-size: 12px; font-weight: 200;" x="658.0993575564793" y="0" dx="0em" dy="0.95em" fill="rgb(33, 33, 33)" stroke="none" stroke-width="1px">10k</text><text style="text-anchor: middle; visibility: inherit; font-family: Roboto, sans-serif; font-size: 12px; font-weight: 200;" x="717.9265718797956" y="0" dx="0em" dy="0.95em" fill="rgb(33, 33, 33)" stroke="none" stroke-width="1px">11k</text><text style="text-anchor: middle; visibility: inherit; font-family: Roboto, sans-serif; font-size: 12px; font-weight: 200;" x="777.7537862031119" y="0" dx="0em" dy="0.95em" fill="rgb(33, 33, 33)" stroke="none" stroke-width="1px">12k</text><text style="text-anchor: middle; visibility: hidden; font-family: Roboto, sans-serif; font-size: 12px; font-weight: 200;" x="837.5810005264282" y="0" dx="0em" dy="0.95em" fill="rgb(33, 33, 33)" stroke="none" stroke-width="1px">13k</text></g><line x1="0" y1="0" x2="837.5810005264282" y2="0" fill="rgb(0, 0, 0)" stroke="rgb(204, 204, 204)" stroke-width="1px"></line></g></g></g></g></svg>