<svg viewBox="0 0 880.2333374023438 400" xmlns="http://www.w3.org/2000/svg"><g><g><g><g><g><line x1="42.65199947357178" y1="374.61000061035156" x2="37.65199947357178" y2="374.61000061035156" style="visibility: inherit;" fill="rgb(0, 0, 0)" stroke="rgb(204, 204, 204)" stroke-width="1px"></line><line x1="42.65199947357178" y1="327.7837505340576" x2="37.65199947357178" y2="327.7837505340576" style="visibility: inherit;" fill="rgb(0, 0, 0)" stroke="rgb(204, 204, 204)" stroke-width="1px"></line><line x1="42.65199947357178" y1="280.9575004577636" x2="37.65199947357178" y2="280.9575004577636" style="visibility: inherit;" fill="rgb(0, 0, 0)" stroke="rgb(204, 204, 204)" stroke-width="1px"></line><line x1="42.65199947357178" y1="234.13125038146973" x2="37.65199947357178" y2="234.13125038146973" style="visibility: inherit;" fill="rgb(0, 0, 0)" stroke="rgb(204, 204, 204)" stroke-width="1px"></line><line x1="42.65199947357178" y1="187.30500030517578" x2="37.65199947357178" y2="187.30500030517578" style="visibility: inherit;" fill="rgb(0, 0, 0)" stroke="rgb(204, 204, 204)" stroke-width="1px"></line><line x1="42.65199947357178" y1="140.47875022888192" x2="37.65199947357178" y2="140.47875022888192" style="visibility: inherit;" fill="rgb(0, 0, 0)" stroke="rgb(204, 204, 204)" stroke-width="1px"></line><line x1="42.65199947357178" y1="93.65250015258793" x2="37.65199947357178" y2="93.65250015258793" style="visibility: inherit;" fill="rgb(0, 0, 0)" stroke="rgb(204, 204, 204)" stroke-width="1px"></line><line x1="42.65199947357178" y1="46.82625007629399" x2="37.65199947357178" y2="46.82625007629399" style="visibility: inherit;" fill="rgb(0, 0, 0)" stroke="rgb(204, 204, 204)" stroke-width="1px"></line><line x1="42.65199947357178" y1="0" x2="37.65199947357178" y2="0" style="visibility: inherit;" fill="rgb(0, 0, 0)" stroke="rgb(204, 204, 204)" stroke-width="1px"></line></g><g transform="translate(32.65199947357178, 0)"><text style="text-anchor: end; visibility: hidden; font-family: Roboto, sans-serif; font-size: 12px; font-weight: 200;" x="0" y="374.61000061035156" dx="0em" dy="0.3em" fill="rgb(33, 33, 33)" stroke="none" stroke-width="1px">1.4</text><text style="text-anchor: end; visibility: inherit; font-family: Roboto, sans-serif; font-size: 12px; font-weight: 200;" x="0" y="327.7837505340576" dx="0em" dy="0.3em" fill="rgb(33, 33, 33)" stroke="none" stroke-width="1px">1.5</text><text style="text-anchor: end; visibility: inherit; font-family: Roboto, sans-serif; font-size: 12px; font-weight: 200;" x="0" y="280.9575004577636" dx="0em" dy="0.3em" fill="rgb(33, 33, 33)" stroke="none" stroke-width="1px">1.6</text><text style="text-anchor: end; visibility: inherit; font-family: Roboto, sans-serif; font-size: 12px; font-weight: 200;" x="0" y="234.13125038146973" dx="0em" dy="0.3em" fill="rgb(33, 33, 33)" stroke="none" stroke-width="1px">1.7</text><text style="text-anchor: end; visibility: inherit; font-family: Roboto, sans-serif; font-size: 12px; font-weight: 200;" x="0" y="187.30500030517578" dx="0em" dy="0.3em" fill="rgb(33, 33, 33)" stroke="none" stroke-width="1px">1.8</text><text style="text-anchor: end; visibility: inherit; font-family: Roboto, sans-serif; font-size: 12px; font-weight: 200;" x="0" y="140.47875022888192" dx="0em" dy="0.3em" fill="rgb(33, 33, 33)" stroke="none" stroke-width="1px">1.9</text><text style="text-anchor: end; visibility: inherit; font-family: Roboto, sans-serif; font-size: 12px; font-weight: 200;" x="0" y="93.65250015258793" dx="0em" dy="0.3em" fill="rgb(33, 33, 33)" stroke="none" stroke-width="1px">2</text><text style="text-anchor: end; visibility: inherit; font-family: Roboto, sans-serif; font-size: 12px; font-weight: 200;" x="0" y="46.82625007629399" dx="0em" dy="0.3em" fill="rgb(33, 33, 33)" stroke="none" stroke-width="1px">2.1</text><text style="text-anchor: end; visibility: hidden; font-family: Roboto, sans-serif; font-size: 12px; font-weight: 200;" x="0" y="0" dx="0em" dy="0.3em" fill="rgb(33, 33, 33)" stroke="none" stroke-width="1px">2.2</text></g><line x1="42.65199947357178" y1="0" x2="42.65199947357178" y2="374.61000061035156" fill="rgb(0, 0, 0)" stroke="rgb(204, 204, 204)" stroke-width="1px"></line></g></g><g transform="translate(42, 0)" clip-path="url(#clip_0)"><clipPath id="clip_0"><rect width="837" height="374"></rect></clipPath><g><g><g><line x1="0" y1="0" x2="0" y2="374.61000061035156" fill="rgb(0, 0, 0)" stroke="rgb(66, 66, 66)" stroke-width="1px" opacity="0.25"></line><line x1="59.8272143233163" y1="0" x2="59.8272143233163" y2="374.61000061035156" fill="rgb(0, 0, 0)" stroke="rgb(66, 66, 66)" stroke-width="1px" opacity="0.25"></line><line x1="119.6544286466326" y1="0" x2="119.6544286466326" y2="374.61000061035156" fill="rgb(0, 0, 0)" stroke="rgb(66, 66, 66)" stroke-width="1px" opacity="0.25"></line><line x1="179.4816429699489" y1="0" x2="179.4816429699489" y2="374.61000061035156" fill="rgb(0, 0, 0)" stroke="rgb(66, 66, 66)" stroke-width="1px" opacity="0.25"></line><line x1="239.3088572932652" y1="0" x2="239.3088572932652" y2="374.61000061035156" fill="rgb(0, 0, 0)" stroke="rgb(66, 66, 66)" stroke-width="1px" opacity="0.25"></line><line x1="299.1360716165815" y1="0" x2="299.1360716165815" y2="374.61000061035156" fill="rgb(0, 0, 0)" stroke="rgb(66, 66, 66)" stroke-width="1px" opacity="0.25"></line><line x1="358.9632859398978" y1="0" x2="358.9632859398978" y2="374.61000061035156" fill="rgb(0, 0, 0)" stroke="rgb(66, 66, 66)" stroke-width="1px" opacity="0.25"></line><line x1="418.7905002632141" y1="0" x2="418.7905002632141" y2="374.61000061035156" fill="rgb(0, 0, 0)" stroke="rgb(66, 66, 66)" stroke-width="1px" opacity="0.25"></line><line x1="478.6177145865304" y1="0" x2="478.6177145865304" y2="374.61000061035156" fill="rgb(0, 0, 0)" stroke="rgb(66, 66, 66)" stroke-width="1px" opacity="0.25"></line><line x1="538.4449289098467" y1="0" x2="538.4449289098467" y2="374.61000061035156" fill="rgb(0, 0, 0)" stroke="rgb(66, 66, 66)" stroke-width="1px" opacity="0.25"></line><line x1="598.272143233163" y1="0" x2="598.272143233163" y2="374.61000061035156" fill="rgb(0, 0, 0)" stroke="rgb(66, 66, 66)" stroke-width="1px" opacity="0.25"></line><line x1="658.0993575564793" y1="0" x2="658.0993575564793" y2="374.61000061035156" fill="rgb(0, 0, 0)" stroke="rgb(66, 66, 66)" stroke-width="1px" opacity="0.25"></line><line x1="717.9265718797956" y1="0" x2="717.9265718797956" y2="374.61000061035156" fill="rgb(0, 0, 0)" stroke="rgb(66, 66, 66)" stroke-width="1px" opacity="0.25"></line><line x1="777.7537862031119" y1="0" x2="777.7537862031119" y2="374.61000061035156" fill="rgb(0, 0, 0)" stroke="rgb(66, 66, 66)" stroke-width="1px" opacity="0.25"></line><line x1="837.5810005264282" y1="0" x2="837.5810005264282" y2="374.61000061035156" fill="rgb(0, 0, 0)" stroke="rgb(66, 66, 66)" stroke-width="1px" opacity="0.25"></line></g><g><line x1="0" y1="374.61000061035156" x2="837.5810005264282" y2="374.61000061035156" fill="rgb(0, 0, 0)" stroke="rgb(66, 66, 66)" stroke-width="1px" opacity="0.25"></line><line x1="0" y1="327.7837505340576" x2="837.5810005264282" y2="327.7837505340576" fill="rgb(0, 0, 0)" stroke="rgb(66, 66, 66)" stroke-width="1px" opacity="0.25"></line><line x1="0" y1="280.9575004577636" x2="837.5810005264282" y2="280.9575004577636" fill="rgb(0, 0, 0)" stroke="rgb(66, 66, 66)" stroke-width="1px" opacity="0.25"></line><line x1="0" y1="234.13125038146973" x2="837.5810005264282" y2="234.13125038146973" fill="rgb(0, 0, 0)" stroke="rgb(66, 66, 66)" stroke-width="1px" opacity="0.25"></line><line x1="0" y1="187.30500030517578" x2="837.5810005264282" y2="187.30500030517578" fill="rgb(0, 0, 0)" stroke="rgb(66, 66, 66)" stroke-width="1px" opacity="0.25"></line><line x1="0" y1="140.47875022888192" x2="837.5810005264282" y2="140.47875022888192" fill="rgb(0, 0, 0)" stroke="rgb(66, 66, 66)" stroke-width="1px" opacity="0.25"></line><line x1="0" y1="93.65250015258793" x2="837.5810005264282" y2="93.65250015258793" fill="rgb(0, 0, 0)" stroke="rgb(66, 66, 66)" stroke-width="1px" opacity="0.25"></line><line x1="0" y1="46.82625007629399" x2="837.5810005264282" y2="46.82625007629399" fill="rgb(0, 0, 0)" stroke="rgb(66, 66, 66)" stroke-width="1px" opacity="0.25"></line><line x1="0" y1="0" x2="837.5810005264282" y2="0" fill="rgb(0, 0, 0)" stroke="rgb(66, 66, 66)" stroke-width="1px" opacity="0.25"></line></g></g></g><g><g><line x1="0" y1="1030.1775016784666" x2="837.5810005264282" y2="1030.1775016784666" fill="rgb(0, 0, 0)" stroke="rgb(153, 153, 153)" stroke-width="1.5px"></line></g></g><g><g><line x1="59.8272143233163" y1="0" x2="59.8272143233163" y2="374.61000061035156" fill="rgb(0, 0, 0)" stroke="rgb(153, 153, 153)" stroke-width="1.5px"></line></g></g><g><g><g><g><g><path style="fill: none;" stroke="rgb(0, 119, 187)" stroke-width="2px" d="M60.96393139545931,-17.333745427955282L62.10064846760232,1.411934072366163L63.237365539745326,22.104632793053778L64.37408261188834,38.50571244758416L65.51079968403134,46.929200511386135L66.64751675617435,57.91653648801228L67.78423382831737,64.46599652403212L68.92095090046037,65.90005169213441L70.05766797260338,69.32683048984994L71.1943850447464,70.18901197705732L72.3311021168894,72.17596824959902L73.46781918903241,78.748772151839L74.60453626117541,82.99696416244797L75.74125333331843,85.24928004698234L76.87797040546144,87.52321239128808L78.01468747760445,90.3584154309596L79.15140454974747,90.43383853888665L80.28812162189048,96.05125742414782L81.42483869403348,99.34848128753434L82.5615557661765,98.36720460406086L84.35637219587598,102.73210240764335L85.49308926801899,109.96571547584722L86.62980634016199,110.92345276531027L87.766523412305,112.19094681268422L88.90324048444802,117.14125961548815L90.03995755659103,120.888873190307L91.17667462873403,122.52909674725973L92.31339170087705,125.88228468911637L93.45010877302006,125.55010510394413L94.58682584516308,127.24530375144205L95.72354291730608,129.88280187088424L96.86025998944909,131.2908702938891L97.9969770615921,132.32487830324962L99.1336941337351,136.3495303343449L100.27041120587812,136.2344358516469L101.40712827802112,137.77868000255637L102.54384535016413,139.20507219780848L103.68056242230715,139.65006318109607L104.81727949445015,141.21423174893252L105.95399656659316,141.92696946388764L107.74881299629266,146.20480397730847L108.88553006843567,151.4966306377033L110.02224714057868,149.03123593817438L111.15896421272167,150.56190271084498L112.29568128486468,151.7198875365509L113.4323983570077,154.8482165558072L114.56911542915071,156.2995211906809L115.70583250129373,155.9189703978311L116.84254957343674,156.48553438029592L117.97926664557973,157.45460047351295L119.11598371772274,160.79425691377372L120.25270078986576,158.1590824456867L121.38941786200877,158.67582927950113L122.52613493415178,159.1776568320682L123.66285200629478,161.3493901028116L124.7995690784378,162.56354032261825L125.93628615058081,162.4403099739834L127.07300322272383,160.17925092307334L128.20972029486683,162.7840032846552L129.34643736700983,162.02768313443875L131.14125379670932,164.10118652283663L132.27797086885232,166.16653063933234L133.41468794099535,170.89054548239832L134.55140501313835,176.397831660788L135.68812208528138,176.12185136020204L136.82483915742438,176.24401050800466L137.96155622956738,175.7479740052783L139.09827330171038,179.1264487021774L140.2349903738534,178.15673675606706L141.3717074459964,179.10342911165094L142.50842451813944,178.5140469340281L143.64514159028244,180.11049915548065L144.78185866242544,176.29371188584517L145.91857573456844,178.723057427428L147.05529280671146,180.3680678194374L148.19200987885446,180.0575651511714L149.3287269509975,178.16619260896564L150.4654440231405,177.34961713735385L151.6021610952835,176.03639787779233L152.73887816742652,174.86041938979875L154.533694597126,179.0916181090794L155.67041166926901,184.53665903904184L156.80712874141201,189.12995160335925L157.94384581355504,191.29603060571114L159.08056288569801,190.52622833939623L160.21727995784104,192.11345538746306L161.35399702998404,188.81265969523466L162.49071410212707,191.43379503828302L163.62743117427007,189.17754109034973L164.76414824641307,192.4095705762998L165.9008653185561,190.3178025536615L167.0375823906991,191.5466082938558L168.17429946284213,190.19077386446963L169.31101653498513,191.44772765688467L170.44773360712813,190.69499439322695L171.58445067927113,190.87576442768471L172.72116775141416,190.40969191737966L173.85788482355716,190.05359564083895L174.99460189570019,188.00134252749464L176.13131896784319,184.17861239739514L177.92613539754268,190.35586982378342L179.06285246968568,192.81290027054666L180.19956954182868,196.64813370730363L181.3362866139717,198.48490803771944L182.4730036861147,198.84671600756073L183.60972075825774,197.04023618105168L184.74643783040074,197.04265194480556L185.88315490254374,199.07329279246764L187.01987197468674,198.5584724548392L188.15658904682977,199.46547850279646L189.29330611897277,198.61533454087902L190.4300231911158,200.43417728365287L191.56674026325877,200.42589381452865L192.7034573354018,200.06246205801816L193.8401744075448,203.4723816937331L194.97689147968782,202.58222556308306L196.11360855183082,200.9454391089583L197.25032562397382,202.7177435194907L198.38704269611685,200.41168913155462L199.52375976825985,201.69077430565594L201.31857619795935,204.66327603414607L202.45529327010235,207.74301325043893L203.59201034224537,208.7227906406127L204.72872741438837,210.06875417144164L205.86544448653137,211.35454168910704L207.00216155867437,213.7433341516107L208.1388786308174,211.4627778723114L209.2755957029604,213.47555894240352L210.41231277510343,210.39597772147837L211.54902984724643,211.09711612309832L212.68574691938946,210.1000959665461L213.82246399153246,208.50208080652015L214.95918106367543,209.26124852244786L216.0958981358185,206.73024582441798L217.23261520796146,207.89090742801054L218.36933228010452,207.81150079610103L219.5060493522475,208.9693053313544L220.6427664243905,209.6904249917889L221.77948349653352,208.60406687560638L222.91620056867652,207.98880375387452L224.711016998376,210.4047685028562L225.847734070519,214.56449088464555L226.98445114266204,216.84766771766567L228.12116821480504,216.7588755012688L229.25788528694804,217.6164465093987L230.39460235909107,217.29442968255287L231.53131943123407,219.57037166134828L232.6680365033771,218.1370152160669L233.8047535755201,218.2651266115764L234.94147064766312,217.7717459891375L236.07818771980612,217.81700867727383L237.2149047919491,216.4298346955299L238.35162186409215,214.77343017553642L239.48833893623512,215.84030668932436L240.62505600837818,214.89568992137953L241.76177308052115,212.94966633322767L242.89849015266415,212.29484841983282L244.03520722480718,216.32963144621894L245.17192429695018,215.48009110762476L246.3086413690932,216.037512714546L248.10345779879268,219.2369573309678L249.24017487093573,220.3888587653214L250.3768919430787,223.95870097475623L251.5136090152217,222.98689753102934L252.65032608736473,223.68484593820537L253.78704315950773,224.51311959943857L254.92376023165076,230.10077993129147L256.06047730379373,236.83362015673035L257.19719437593676,244.2660052906015L258.3339114480798,245.76988033881554L259.47062852022276,246.90531486614776L260.6073455923658,247.37925549704147L261.7440626645088,246.84574939501886L262.8807797366518,246.11754781212665L264.0174968087948,248.61919090903194L265.15421388093785,247.35963781926756L266.2909309530809,249.8889636132211L267.42764802522385,252.8438220496271L268.5643650973668,250.48960489341894L269.7010821695099,251.28996252582485L271.49589859920934,258.3680243929442L272.63261567135237,260.3499928483605L273.7693327434954,263.2140120792511L274.9060498156384,264.6289570284362L276.0427668877814,263.77350058308576L277.17948395992437,263.64068195948676L278.31620103206745,262.20770529880843L279.4529181042104,261.37174380765026L280.58963517635345,259.7236879565337L281.7263522484964,260.79762789328123L282.86306932063945,261.352722528259L283.9997863927825,261.8916257140143L285.13650346492545,261.05817290388666L286.2732205370685,260.9628498650864L287.4099376092115,262.5037958156332L288.5466546813545,264.572118265869L289.6833717534975,263.22468083539167L290.8200888256405,262.91108483430105L291.95680589778357,262.3573874253738L293.09352296992654,261.7599287758471L294.88833939962603,266.0626611003823L296.02505647176906,269.521855045512L297.16177354391203,272.38447322563877L298.29849061605506,273.19550719547794L299.43520768819803,271.3023564720294L300.5719247603411,272.01979819275033L301.7086418324841,270.42395221175923L302.8453589046271,273.5821893082484L303.9820759767701,271.3119962478714L305.1187930489131,270.60747694780315L306.25551012105615,271.204842708239L307.3922271931991,272.1088143076518L308.52894426534215,270.0740869141607L309.6656613374852,269.00628998975765L310.80237840962815,269.945754841154L311.9390954817712,268.91357148475856L313.0758125539142,270.48587034034915L314.21252962605723,268.10433564050334L315.3492466982002,270.57986494788327L316.4859637703432,271.1097238593038L318.2807802000427,274.8973311875221L319.4174972721857,275.629832228763L320.5542143443287,278.8857600269424L321.6909314164717,279.5385031849681L322.8276484886148,281.781069757004L323.96436556075776,282.07038252469937L325.1010826329007,281.1715995071711L326.23779970504376,280.58718147771043L327.3745167771868,279.92987109575455L328.5112338493298,278.63415046791573L329.6479509214728,279.4048197054683L330.7846679936158,278.4481560122187L331.92138506575884,277.3873519261349L333.0581021379018,276.4235337228946L334.19481921004484,277.8799270003801L335.33153628218787,277.86073476872383L336.46825335433084,275.85180149015065L337.60497042647387,275.57561955620366L338.74168749861684,275.03992721685546L339.8784045707599,273.3620780087894L341.67322100045936,279.23185307340555L342.8099380726024,284.0185157689839L343.9466551447454,285.78569940347455L345.0833722168884,284.67070051683254L346.2200892890314,287.17429019822856L347.3568063611744,287.257334114293L348.4935234333175,287.2598687093704L349.63024050546045,287.22535127384754L350.7669575776034,281.9937280548724L351.90367464974645,284.35544610244034L353.0403917218895,283.6194517026684L354.1771087940325,286.1299055210394L355.3138258661755,284.2651554545894L356.4505429383185,283.2636863182739L357.58726001046153,282.6177236030289L358.7239770826045,281.46787344840226L359.86069415474753,279.7132290231181L360.99741122689056,280.3798482036359L362.1341282990336,279.5812483743203L363.27084537117656,279.40651519140886L365.065661800876,284.0781871493382L366.2023788730191,285.80560434252396L367.33909594516206,289.60147718154235L368.4758130173051,289.3368346280792L369.61253008944806,290.36722013680486L370.7492471615911,289.6120703091072L371.8859642337341,291.34694973706604L373.0226813058771,290.96130978339886L374.1593983780201,291.2994587590708L375.29611545016314,290.89467812540704L376.43283252230617,290.9446926274465L377.56954959444914,289.8533865872583L378.70626666659217,289.4678399681025L379.8429837387352,286.83695784378705L380.97970081087817,286.1788315034605L382.1164178830212,286.64681809929493L383.2531349551642,286.9362288562576L384.3898520273072,286.11757461900197L385.5265690994502,287.54415427094006L386.6632861715932,285.41732759335116L388.45810260129275,290.19613916535627L389.5948196734357,292.6867220522786L390.73153674557875,294.98632666474185L391.8682538177218,296.0000807255305L393.00497088986475,295.3388688495278L394.1416879620078,294.7065760909607L395.27840503415075,296.02733677944696L396.41512210629384,293.39062743144126L397.5518391784368,295.2010148792935L398.6885562505798,291.7985051369788L399.8252733227228,292.55826541623026L400.96199039486584,291.6897068426106L402.09870746700886,293.1068861090647L403.23542453915184,293.7874077852338L404.37214161129486,293.5423666690203L405.5088586834379,292.32946891348723L406.64557575558086,294.3175898875476L407.7822928277239,292.7258310768754L408.9190098998669,294.3103519418084L410.0557269720099,292.7625280851086L411.8505434017094,293.843800325429L412.98726047385236,295.53258035704005L414.12397754599544,297.38868211511084L415.2606946181384,300.75042080580494L416.39741169028144,300.31709021046765L417.5341287624244,297.7412472320062L418.67084583456744,297.2170915096789L419.8075629067105,298.4191495256681L420.94427997885344,297.45958446918456L422.0809970509965,297.4162907512845L423.21771412313956,296.79121864394756L424.35443119528253,294.52814474194685L425.4911482674255,292.8714334815764L426.62786533956853,295.33950701807476L427.7645824117115,295.77138072565265L428.9012994838546,295.6132523451542L430.03801655599756,294.8589478440238L431.1747336281406,293.0971561079617L432.31145070028356,294.1164525678154L433.44816777242653,292.9270809405902L435.2429842021261,297.6278949630995L436.3797012742691,300.07681487440794L437.5164183464121,299.62931009523817L438.65313541855505,300.88517365072744L439.7898524906981,301.85963225209616L440.92656956284117,301.7097668794892L442.06328663498414,302.6729711705052L443.2000037071271,301.0402163400894L444.33672077927014,298.3951032525257L445.4734378514131,298.7644805493781L446.6101549235562,299.695371603428L447.74687199569917,299.33861652718275L448.8835890678422,298.7643378552145L450.02030613998517,297.51325604229265L451.15702321212814,297.799542309508L452.2937402842712,297.5309291429199L453.43045735641425,296.9874080771943L454.5671744285572,296.775148438943L455.7038915007002,297.50558648742685L456.8406085728432,296.8734658745172L458.6354250025428,299.00541246816795L459.77214207468575,302.2096093798549L460.9088591468287,303.22469744878947L462.04557621897175,302.10914191489036L463.18229329111483,302.806267893719L464.3190103632578,304.46687867083324L465.4557274354008,304.85758468267625L466.5924445075438,303.41031528386435L467.7291615796868,301.4595351432247L468.86587865182986,302.3839488835288L470.00259572397283,302.54778146194866L471.13931279611586,303.81392833610926L472.27602986825883,301.87724961024696L473.4127469404018,301.21345810632766L474.5494640125449,302.09813392804546L475.6861810846879,303.8626111544391L476.8228981568309,302.6512709428401L477.95961522897386,302.2611805357974L479.0963323011169,300.9563409366434L480.23304937326,299.95086672886663L482.0278658029594,303.51858991692336L483.16458287510244,305.55095295257723L484.3012999472454,304.32064449060033L485.4380170193885,303.244852553657L486.57473409153147,305.1652341826378L487.7114511636745,306.10866939378354L488.84816823581747,306.2300585223185L489.98488530796044,304.9894852068046L491.1216023801035,304.7457907551601L492.2583194522465,305.38040158984217L493.3950365243895,301.78875002149204L494.5317535965325,302.37145597696565L495.66847066867547,303.52682565747193L496.80518774081855,305.19651725353384L497.9419048129616,305.1623123245391L499.07862188510455,302.7358046074677L500.2153389572475,300.999878308692L501.35205602939055,299.74039640831353L502.48877310153364,300.79867428440093L503.6254901736766,300.67764279195427L505.4203066033761,304.4137740898504L506.5570236755191,304.6508451532915L507.69374074766205,307.0285498269591L508.83045781980513,306.38009618243746L509.96717489194816,306.6418549975898L511.10389196409113,308.2740423759578L512.2406090362341,307.99559062241474L513.3773261083771,307.9542290028572L514.5140431805202,307.11531506639074L515.6507602526632,306.97259424366024L516.7874773248062,305.4737465801969L517.9241943969491,306.23791093528774L519.0609114690922,306.1172753471833L520.1976285412352,306.7544935976992L521.3343456133782,304.5080460550897L522.4710626855212,303.1576097524822L523.6077797576642,304.1323325994039L524.7444968298072,303.93622715940825L525.8812139019503,303.9634088490646L527.0179309740932,303.1356113994814L528.8127474037927,306.8063680830917L529.9494644759358,307.5827680382238L531.0861815480788,309.9700644074371L532.2228986202218,310.8295600066906L533.3596156923647,311.0852643586359L534.4963327645078,310.171072261309L535.6330498366508,311.0426716780067L536.7697669087938,309.4758180719329L537.9064839809369,310.9329155690291L539.0432010530799,310.41369728793956L540.1799181252228,309.1703758520552L541.3166351973658,307.3647395551081L542.4533522695089,306.8376052696826L543.5900693416519,305.58368416524047L544.7267864137949,306.0091373389068L545.8635034859378,305.78445822124934L547.0002205580809,306.2210369636964L548.136937630224,305.74248196730036L549.2736547023669,304.9068048078453L550.4103717745099,304.98701117638893L552.2051882042094,307.1053438341057L553.3419052763525,308.0663792470459L554.4786223484955,307.6728050144323L555.6153394206385,309.1125257433216L556.7520564927814,311.0744959432029L557.8887735649245,311.6319283277202L559.0254906370675,310.6367258206964L560.1622077092105,309.66841539871723L561.2989247813535,308.9828647986883L562.4356418534965,311.13493509525614L563.5723589256395,310.40627453812954L564.7090759977826,309.5340967729718L565.8457930699255,309.81012794274295L566.9825101420686,308.46712181130556L568.1192272142116,307.4027988055735L569.2559442863545,309.33173643048235L570.3926613584977,308.69976032021833L571.5293784306406,310.91143936074434L572.6660955027836,310.4670378821513L573.8028125749266,309.0835256242908L575.597629004626,312.4129491353451L576.7343460767692,312.6962213178931L577.8710631489122,313.1019065598595L579.0077802210551,313.3055729821314L580.1444972931981,314.33725713520556L581.2812143653412,313.5294097461595L582.4179314374842,314.3550267729166L583.5546485096272,312.6168105470335L584.6913655817701,312.95911837582094L585.8280826539132,312.5194774801921L586.9647997260562,312.32022229630024L588.1015167981992,311.9003732430501L589.2382338703422,311.6462979469865L590.3749509424853,311.3856712061523L591.5116680146282,311.05890640855597L592.6483850867712,310.5566122071431L593.7851021589142,310.1324512867051L594.9218192310573,311.6251372191739L596.0585363032003,309.877635391294L597.1952533753432,311.51645810403835L598.9900698050428,311.8068538433261L600.1267868771859,312.88343046788475L601.2635039493288,313.7910217589317L602.4002210214718,313.8473639681769L603.5369380936148,313.9117593332655L604.6736551657579,313.8774716843315L605.8103722379009,314.2910320430041L606.9470893100438,313.9263403565611L608.0838063821868,313.9123223101512L609.2205234543299,314.3483601954975L610.3572405264729,312.9329119194629L611.4939575986159,312.9689231638721L612.6306746707589,312.81283973922484L613.7673917429019,313.83177398390626L614.9041088150449,313.1393736483589L616.0408258871879,313.21044904671646L617.1775429593309,311.7045461015549L618.314260031474,311.14142458471315L619.4509771036169,311.4750365352879L620.5876941757599,310.82707811297286L622.3825106054595,313.61037851755657L623.5192276776024,314.241503154681L624.6559447497455,314.3959105229739L625.7926618218885,314.18231962109456L626.9293788940315,314.2409206206422L628.0660959661745,312.2570269681521L629.2028130383175,310.83387154870246L630.3395301104605,310.4248735801453L631.4762471826035,310.9581364405661L632.6129642547465,312.06332037620234L633.7496813268896,312.83566174009286L634.8863983990326,313.36069320743053L636.0231154711755,312.57364450998665L637.1598325433185,313.4459480076011L638.2965496154616,313.6563962345098L639.4332666876046,313.57681876588646L640.5699837597476,314.3874020000515L641.7067008318905,313.0048791525335L642.8434179040336,313.2659338464208L643.9801349761767,312.6510947969153L645.7749514058761,313.31604538973033L646.9116684780191,314.2342425917681L648.0483855501622,315.8032286888262L649.1851026223051,315.215922195843L650.3218196944482,315.74457609584005L651.4585367665912,314.0964588735294L652.5952538387342,315.38848906513755L653.7319709108772,315.0331484413402L654.8686879830202,313.33525538149047L656.0054050551632,312.8892901253751L657.1421221273063,314.074961134887L658.2788391994492,312.12264115141056L659.4155562715922,312.2274120226054L660.5522733437352,312.3270942352521L661.6889904158783,311.4382774096136L662.8257074880213,311.4220706249618L663.9624245601642,312.9295455299408L665.0991416323072,313.2703922480042L666.2358587044503,314.4819601061419L667.3725757765933,313.98177133699414L669.1673922062928,316.62156183190723L670.3041092784358,316.9494805564686L671.4408263505787,316.2167634875603L672.5775434227219,316.89025342958945L673.7142604948649,316.13324327349517L674.8509775670078,316.5296412355563L675.9876946391508,314.73516263394094L677.1244117112939,315.23801560961755L678.2611287834369,316.9454848471793L679.3978458555799,314.32678199430836L680.5345629277228,312.9041564235703L681.6712799998659,314.2407609268104L682.8079970720089,313.00547165228295L683.9447141441519,312.2312742419594L685.081431216295,313.8829390056522L686.218148288438,314.7358361160107L687.3548653605809,315.7684535372798L688.4915824327239,314.7714185500094L689.628299504867,314.6080003605607L690.76501657701,314.247477976227L692.5598330067095,316.1699665219776L693.6965500788524,317.0005895970412L694.8332671509955,317.1289579346033L695.9699842231386,317.17315604799757L697.1067012952815,316.01474628947346L698.2434183674245,316.1277910336629L699.3801354395675,316.5665388559891L700.5168525117106,315.0697215224521L701.6535695838536,317.1880992915694L702.7902866559965,315.0350064320419L703.9270037281395,313.9410035195204L705.0637208002826,313.3645824447356L706.2004378724256,314.69669394694785L707.3371549445686,315.1529728209781L708.4738720167117,315.1407121114353L709.6105890888546,315.0994387002619L710.7473061609976,314.3321851755481L711.8840232331406,315.2526049258339L713.0207403052837,312.9437279535471L714.1574573774267,312.8191133122129L715.9522738071261,313.4206076862396L717.0889908792691,314.2690916781501L718.2257079514122,316.04874048207716L719.3624250235551,317.92850552204396L720.4991420956982,318.1306920867016L721.6358591678412,318.23693229068556L722.7725762399841,318.69611407751376L723.9092933121273,318.7878149704095L725.0460103842702,318.2616694118508L726.1827274564132,316.33064936095644L727.3194445285562,318.1675390419007L728.4561616006991,318.47678795695003L729.5928786728423,317.58878321754537L730.7295957449853,317.5385661582896L731.8663128171282,317.9882753021133L733.0030298892713,316.640579880039L734.1397469614143,315.48439725781424L735.2764640335573,315.7828320764405L736.4131811057003,314.6953983451104L737.5498981778433,314.19865703752566L739.3447146075428,314.5741959922801L740.4814316796859,317.0739892832749L741.6181487518288,317.59907010731496L742.7548658239718,317.96991751328204L743.8915828961149,318.17534465741034L745.0282999682578,317.87840097736813L746.1650170404009,319.45686220788906L747.3017341125438,318.0337467656402L748.4384511846869,316.3141123957786L749.5751682568299,316.3637454928935L750.7118853289728,317.5688527244362L751.848602401116,317.49646439280303L752.985319473259,316.9229975554026L754.1220365454019,315.631898951449L755.2587536175449,316.67609674601886L756.395470689688,317.21870493473375L757.532187761831,317.5467259825243L758.668904833974,318.382781123632L759.8056219061169,318.52380899764313L760.94233897826,318.17991955501265" fill="none"></path></g></g></g></g><g opacity="0.2"><g><g><g><path style="fill: none;" stroke="rgb(0, 119, 187)" stroke-width="2px" d="M60.96393139545931,-17.333745427955282L62.10064846760232,12.65934177255903L63.237365539745326,41.969623564913576L64.37408261188834,57.793382121311964L65.51079968403134,57.926906527485784L66.64751675617435,73.11597758463817L67.78423382831737,73.83182916690116L68.92095090046037,67.9909178941571L70.05766797260338,74.38066359896679L71.1943850447464,71.46925100348112L72.3311021168894,75.13838111125919L73.46781918903241,88.57220909661832L74.60453626117541,89.35538109436861L75.74125333331843,88.62334135249425L76.87797040546144,90.93143798563601L78.01468747760445,94.60922038562016L79.15140454974747,90.54694128424585L80.28812162189048,104.47595948999292L81.42483869403348,104.29381478374493L82.5615557661765,96.8953792714265L84.35637219587598,109.27920973164787L85.49308926801899,120.81589705303399L86.62980634016199,112.36003979065258L87.766523412305,114.09217286906964L88.90324048444802,124.56669363498945L90.03995755659103,126.51027757067509L91.17667462873403,124.98942788580648L92.31339170087705,130.91206145396794L93.45010877302006,125.05183603217033L94.58682584516308,129.7881007857782L95.72354291730608,133.83904817542455L96.86025998944909,133.40297264823815L97.9969770615921,133.87589019385044L99.1336941337351,142.38650809271033L100.27041120587812,136.06179413254634L101.40712827802112,140.09504618910026L102.54384535016413,141.3446604686183L103.68056242230715,140.3175496518966L104.81727949445015,143.5604845919752L105.95399656659316,142.99607603393864L107.74881299629266,152.62155573886187L108.88553006843567,159.43437062192882L110.02224714057868,145.33314389066075L111.15896421272167,152.85790286918794L112.29568128486468,153.4568647748088L113.4323983570077,159.54071008420354L114.56911542915071,158.47647814285577L115.70583250129373,155.34814420857768L116.84254957343674,157.335380353974L117.97926664557973,158.9081996133191L119.11598371772274,165.8037415741242L120.25270078986576,154.2063207435754L121.38941786200877,159.45094953022047L122.52613493415178,159.93039816091735L123.66285200629478,164.6069900089233L124.7995690784378,164.38476565232716L125.93628615058081,162.25546445103103L127.07300322272383,156.78766234670914L128.20972029486683,166.6911318270277L129.34643736700983,160.89320290911385L131.14125379670932,167.2114416054333L132.27797086885232,169.26454681407589L133.41468794099535,177.9765677469973L134.55140501313835,184.65876092837246L135.68812208528138,175.70788090932322L136.82483915742438,176.42724922970868L137.96155622956738,175.0039192511886L139.09827330171038,184.194160747526L140.2349903738534,176.70216883690185L141.3717074459964,180.52346764502684L142.50842451813944,177.62997366759376L143.64514159028244,182.50517748765927L144.78185866242544,170.56853098139212L145.91857573456844,182.36707573980223L147.05529280671146,182.83558340745142L148.19200987885446,179.59181114877222L149.3287269509975,175.3291337956571L150.4654440231405,176.12475392993613L151.6021610952835,174.06656898844997L152.73887816742652,173.09645165780833L154.533694597126,185.43841618800028L155.67041166926901,192.70422043398548L156.80712874141201,196.0198904498352L157.94384581355504,194.545149109239L159.08056288569801,189.3715249399238L160.21727995784104,194.49429595956326L161.35399702998404,183.86146615689225L162.49071410212707,195.3654980528554L163.62743117427007,185.79316016844953L164.76414824641307,197.25761480522488L165.9008653185561,187.18015051970409L167.0375823906991,193.3898169041472L168.17429946284213,188.15702222039044L169.31101653498513,193.3331583455074L170.44773360712813,189.56589449774037L171.58445067927113,191.14691947937126L172.72116775141416,189.71058315192204L173.85788482355716,189.51945122602774L174.99460189570019,184.9229628574781L176.13131896784319,178.4445172022461L177.92613539754268,199.621755963366L179.06285246968568,196.49844594069145L180.19956954182868,202.4009838624388L181.3362866139717,201.2400695333431L182.4730036861147,199.38942796232277L183.60972075825774,194.33051644128818L184.74643783040074,197.04627559043638L185.88315490254374,202.11925406396085L187.01987197468674,197.7862419483963L188.15658904682977,200.82598757473215L189.29330611897277,197.34011859800285L190.4300231911158,203.16244139781384L191.56674026325877,200.4134686108423L192.7034573354018,199.51731442325263L193.8401744075448,208.58726114730553L194.97689147968782,201.24699136710797L196.11360855183082,198.49025942777098L197.25032562397382,205.3762001352893L198.38704269611685,196.95260754965057L199.52375976825985,203.6094020668079L201.31857619795935,209.12202862688127L202.45529327010235,212.36261907487824L203.59201034224537,210.1924567258734L204.72872741438837,212.08769946768507L205.86544448653137,213.2832229656051L207.00216155867437,217.32652284536607L208.1388786308174,208.04194345336236L209.2755957029604,216.49473054754162L210.41231277510343,205.77660589009065L211.54902984724643,212.14882372552802L212.68574691938946,208.60456573171768L213.82246399153246,206.10505806648143L214.95918106367543,210.40000009633923L216.0958981358185,202.93374177737314L217.23261520796146,209.63189983339953L218.36933228010452,207.69239084823676L219.5060493522475,210.70601213423424L220.6427664243905,210.77210448244068L221.77948349653352,206.97452970133236L222.91620056867652,207.06590907127656L224.711016998376,214.0287156263289L225.847734070519,220.80407445732953L226.98445114266204,220.27243296719598L228.12116821480504,216.62568717667364L229.25788528694804,218.90280302159363L230.39460235909107,216.81140444228413L231.53131943123407,222.98428462954143L232.6680365033771,215.98698054814486L233.8047535755201,218.4572937048406L234.94147064766312,217.0316750554789L236.07818771980612,217.8849027094784L237.2149047919491,214.349073722914L238.35162186409215,212.2888233955464L239.48833893623512,217.44062146000624L240.62505600837818,213.4787647694625L241.76177308052115,210.0306309509997L242.89849015266415,211.31262154974047L244.03520722480718,222.3818059857981L245.17192429695018,214.20578059973332L246.3086413690932,216.87364512492786L248.10345779879268,224.0361242556005L249.24017487093573,222.11671091685184L250.3768919430787,229.31346428890856L251.5136090152217,221.52919236543903L252.65032608736473,224.73176854896928L253.78704315950773,225.75553009128862L254.92376023165076,238.48227042907092L256.06047730379373,246.93288049488865L257.19719437593676,255.41458299140822L258.3339114480798,248.0256929111365L259.47062852022276,248.60846665714598L260.6073455923658,248.0901664433818L261.7440626645088,246.04549024198514L262.8807797366518,245.02524543778827L264.0174968087948,252.37165555439014L265.15421388093785,245.470308184621L266.2909309530809,253.6829523041515L267.42764802522385,257.2761097042362L268.5643650973668,246.9582791591065L269.7010821695099,252.49049897443365L271.49589859920934,268.9851171936234L272.63261567135237,263.32294553148495L273.7693327434954,267.51004092558696L274.9060498156384,266.7513744522139L276.0427668877814,262.4903159150599L277.17948395992437,263.4414540240882L278.31620103206745,260.05824030779104L279.4529181042104,260.1178015709129L280.58963517635345,257.251604179859L281.7263522484964,262.40853779840245L282.86306932063945,262.18536448072564L283.9997863927825,262.6999804926472L285.13650346492545,259.8079936886952L286.2732205370685,260.8198653068862L287.4099376092115,264.8152147414535L288.5466546813545,267.6746019412226L289.6833717534975,261.20352468967576L290.8200888256405,262.44069083266504L291.95680589778357,261.52684131198293L293.09352296992654,260.863740801557L294.88833939962603,272.5167595871849L296.02505647176906,274.7106459632064L297.16177354391203,276.678400495829L298.29849061605506,274.4120581502366L299.43520768819803,268.4626303868563L300.5719247603411,273.09596077383185L301.7086418324841,268.03018324027244L302.8453589046271,278.31954495298214L303.9820759767701,267.9067066573057L305.1187930489131,269.5506979977008L306.25551012105615,272.1008913488927L307.3922271931991,273.464771706771L308.52894426534215,267.02199582392404L309.6656613374852,267.4045946031529L310.80237840962815,271.35495211824855L311.9390954817712,267.36529645016526L313.0758125539142,272.84431862373503L314.21252962605723,264.5320335907345L315.3492466982002,274.29315890895305L316.4859637703432,271.9045122264347L318.2807802000427,280.57874217984954L319.4174972721857,276.72858379062427L320.5542143443287,283.7696517242116L321.6909314164717,280.5176179220066L322.8276484886148,285.1449196150579L323.96436556075776,282.50435167624255L325.1010826329007,279.8234249808788L326.23779970504376,279.7105544335195L327.3745167771868,278.94390552282084L328.5112338493298,276.69056952615756L329.6479509214728,280.56082356179695L330.7846679936158,277.0131604723442L331.92138506575884,275.7961457970091L333.0581021379018,274.9778064180341L334.19481921004484,280.0645169166082L335.33153628218787,277.83194642123954L336.46825335433084,272.8384015722909L337.60497042647387,275.16134665528307L338.74168749861684,274.23638870783316L339.8784045707599,270.84530419669045L341.67322100045936,288.03651567032966L342.8099380726024,291.1985098123514L343.9466551447454,288.4364748552107L345.0833722168884,282.99820218686955L346.2200892890314,290.9296747203225L347.3568063611744,287.3818999883897L348.4935234333175,287.26367060198663L349.63024050546045,287.1735751205633L350.7669575776034,274.14629322640985L351.90367464974645,287.89802317379235L353.0403917218895,282.51546010301035L354.1771087940325,289.8955862485959L355.3138258661755,281.4680303549144L356.4505429383185,281.7614826138006L357.58726001046153,281.6487795301614L358.7239770826045,279.7430982164624L359.86069415474753,277.0812623851921L360.99741122689056,281.3797769744124L362.1341282990336,278.383348630347L363.27084537117656,279.1444154170417L365.065661800876,291.08569508623214L366.2023788730191,288.39673013230276L367.33909594516206,295.29528644006996L368.4758130173051,288.9398707978844L369.61253008944806,291.9127983998933L370.7492471615911,288.4793455675608L371.8859642337341,293.9492688790042L373.0226813058771,290.3828498528983L374.1593983780201,291.80668222257873L375.29611545016314,290.2875071749113L376.43283252230617,291.0197143805058L377.56954959444914,288.2164275269761L378.70626666659217,288.889520039369L379.8429837387352,282.89063465731397L380.97970081087817,285.19164199297074L382.1164178830212,287.34879799304645L383.2531349551642,287.3703449917016L384.3898520273072,284.8895932631185L385.5265690994502,289.68402374884727L386.6632861715932,282.22708757696773L388.45810260129275,297.36435652336377L389.5948196734357,296.42259638266205L390.73153674557875,298.43573358343656L391.8682538177218,297.52071181671363L393.00497088986475,294.3470510355237L394.1416879620078,293.7581369531099L395.27840503415075,298.00847781217635L396.41512210629384,289.4355634094327L397.5518391784368,297.9165960510718L398.6885562505798,286.6947405235069L399.8252733227228,293.6979058351076L400.96199039486584,290.3868689821811L402.09870746700886,295.23265500874595L403.23542453915184,294.8081902994877L404.37214161129486,293.1748049947L405.5088586834379,290.5101222801877L406.64557575558086,297.2997713486384L407.7822928277239,290.3381928608669L408.9190098998669,296.6871332392079L410.0557269720099,290.440792300059L411.8505434017094,295.4657086859097L412.98726047385236,298.0657504044566L414.12397754599544,300.1728347522171L415.2606946181384,305.7930288418461L416.39741169028144,299.66709431746176L417.5341287624244,293.87748276431375L418.67084583456744,296.43085792618785L419.8075629067105,300.2222365496518L420.94427997885344,296.02023688445934L422.0809970509965,297.35135017443463L423.21771412313956,295.85361048294226L424.35443119528253,291.13353388894575L425.4911482674255,290.38636659102076L426.62786533956853,299.0416173228223L427.7645824117115,296.41919128701966L428.9012994838546,295.3760597744067L430.03801655599756,293.72749109232836L431.1747336281406,290.4544685038686L432.31145070028356,295.64539725759596L433.44816777242653,291.1430234997524L435.2429842021261,304.6791159968634L436.3797012742691,303.7501947413707L437.5164183464121,298.95805292648356L438.65313541855505,302.76896898396126L439.7898524906981,303.32132015414936L440.92656956284117,301.48496882057907L442.06328663498414,304.117777607029L443.2000037071271,298.5910840944657L444.33672077927014,294.42743362118017L445.4734378514131,299.31854649465686L446.6101549235562,301.09170818450275L447.74687199569917,298.80348391281495L448.8835890678422,297.9029198472622L450.02030613998517,295.6366333229098L451.15702321212814,298.2289717103313L452.2937402842712,297.1280093930377L453.43045735641425,296.17212647860606L454.5671744285572,296.45675898156605L455.7038915007002,298.60124356015285L456.8406085728432,295.9252849551526L458.6354250025428,302.2033323586438L459.77214207468575,307.0159047473853L460.9088591468287,304.74732955219133L462.04557621897175,300.4358086140419L463.18229329111483,303.8519568619622L464.3190103632578,306.9577948365045L465.4557274354008,305.4436437004406L466.5924445075438,301.23941118564653L467.7291615796868,298.53336493226516L468.86587865182986,303.770569493985L470.00259572397283,302.7935303295785L471.13931279611586,305.71314864734995L472.27602986825883,298.9722315214535L473.4127469404018,300.2177708504487L474.5494640125449,303.4251476606223L475.6861810846879,306.5093269940294L476.8228981568309,300.83426062544186L477.95961522897386,301.6760449252333L479.0963323011169,298.9990815379124L480.23304937326,298.4426554172014L482.0278658029594,308.8701746990082L483.16458287510244,308.599497506058L484.3012999472454,302.47518179763483L485.4380170193885,301.6311646482418L486.57473409153147,308.04580662610897L487.7114511636745,307.5238222105022L488.84816823581747,306.4121422151211L489.98488530796044,303.12862523353397L491.1216023801035,304.3802490776934L492.2583194522465,306.332317841865L493.3950365243895,296.40127266896707L494.5317535965325,303.2455149101761L495.66847066867547,305.25988017823147L496.80518774081855,307.70105464762673L497.9419048129616,305.11100493104686L499.07862188510455,299.0960430318605L500.2153389572475,298.39598886052863L501.35205602939055,297.8511735577458L502.48877310153364,302.38609109853223L503.6254901736766,300.49609555328425L505.4203066033761,310.0179710366947L506.5570236755191,305.0064517484534L507.69374074766205,310.5951068374602L508.83045781980513,305.40741571565513L509.96717489194816,307.0344932203184L511.10389196409113,310.7223234435096L512.2406090362341,307.5779129921002L513.3773261083771,307.89218657352103L514.5140431805202,305.856944161691L515.6507602526632,306.75851300956447L516.7874773248062,303.225475085002L517.9241943969491,307.38415746792407L519.0609114690922,305.93632196502676L520.1976285412352,307.71032097347324L521.3343456133782,301.13837474117554L522.4710626855212,301.13195529857103L523.6077797576642,305.5944168697865L524.7444968298072,303.64206899941473L525.8812139019503,304.00418138354917L527.0179309740932,301.8939152251064L528.8127474037927,312.3125031085069L529.9494644759358,308.7473679709219L531.0861815480788,313.55100896125714L532.2228986202218,312.1188034055708L533.3596156923647,311.4688208865541L534.4963327645078,308.79978411531874L535.6330498366508,312.3500708030533L536.7697669087938,307.12553766282235L537.9064839809369,313.1185618146733L539.0432010530799,309.6348698663055L540.1799181252228,307.3053936982287L541.3166351973658,304.65628510968736L542.4533522695089,306.04690384154446L543.5900693416519,303.7028025085774L544.7267864137949,306.64731709940634L545.8635034859378,305.44743954476326L547.0002205580809,306.87590507736695L548.136937630224,305.0246494727062L549.2736547023669,303.6532890686626L550.4103717745099,305.1073207292043L552.2051882042094,310.2828428206808L553.3419052763525,309.5079323664563L554.4786223484955,307.0824436655121L555.6153394206385,311.2721068366559L556.7520564927814,314.0174512430249L557.8887735649245,312.46807690449623L559.0254906370675,309.14392206016055L560.1622077092105,308.2159497657485L561.2989247813535,307.95453889864484L562.4356418534965,314.3630405401077L563.5723589256395,309.31328370243955L564.7090759977826,308.22583012523546L565.8457930699255,310.2241746973996L566.9825101420686,306.45261261414953L568.1192272142116,305.8063142969754L569.2559442863545,312.22514286784553L570.3926613584977,307.7517961548224L571.5293784306406,314.2289579215335L572.6660955027836,309.80043566426184L573.8028125749266,307.00825723749995L575.597629004626,317.40708440192657L576.7343460767692,313.1211295917151L577.8710631489122,313.71043442280916L579.0077802210551,313.61107261553934L580.1444972931981,315.88478336481694L581.2812143653412,312.3176386625905L582.4179314374842,315.59345231305224L583.5546485096272,310.0094862082087L584.6913655817701,313.47258011900203L585.8280826539132,311.860016136749L586.9647997260562,312.02133952046233L588.1015167981992,311.27059966317483L589.2382338703422,311.26518500289103L590.3749509424853,310.994731094901L591.5116680146282,310.5687592121617L592.6483850867712,309.80317090502376L593.7851021589142,309.4962099060481L594.9218192310573,313.8641661178772L596.0585363032003,307.2563826494743L597.1952533753432,313.97469217315484L598.9900698050428,312.2424474522577L600.1267868771859,314.49829540472274L601.2635039493288,315.15240869550234L602.4002210214718,313.93187728204475L603.5369380936148,314.0083523808985L604.6736551657579,313.8260402109304L605.8103722379009,314.911372581013L606.9470893100438,313.3793028268965L608.0838063821868,313.89129524053624L609.2205234543299,315.00241702351695L610.3572405264729,310.809739505411L611.4939575986159,313.0229400304861L612.6306746707589,312.57871460225397L613.7673917429019,315.36017535092833L614.9041088150449,312.10077314503815L616.0408258871879,313.31706214425276L617.1775429593309,309.4456916838126L618.314260031474,310.29674230945056L619.4509771036169,311.9754544611501L620.5876941757599,309.8551404795003L622.3825106054595,317.78532912443234L623.5192276776024,315.1881901103675L624.6559447497455,314.62752157541354L625.7926618218885,313.8619332682756L626.9293788940315,314.32882211996366L628.0660959661745,309.281186489417L629.2028130383175,308.699138419528L630.3395301104605,309.8113766273095L631.4762471826035,311.7580307311973L632.6129642547465,313.72109627965665L633.7496813268896,313.9941737859285L634.8863983990326,314.1482404084368L636.0231154711755,311.3930714638209L637.1598325433185,314.7544032540227L638.2965496154616,313.972068574873L639.4332666876046,313.4574525629514L640.5699837597476,315.60327685129914L641.7067008318905,310.9310948812563L642.8434179040336,313.657515887252L643.9801349761767,311.7288362226568L645.7749514058761,314.3134712789529L646.9116684780191,315.61153839482495L648.0483855501622,318.1567078344133L649.1851026223051,314.334962456368L650.3218196944482,316.5375569458356L651.4585367665912,311.62428304006335L652.5952538387342,317.32653435254997L653.7319709108772,314.50013750564403L654.8686879830202,310.78841579171603L656.0054050551632,312.22034224120216L657.1421221273063,315.85346764915494L658.2788391994492,309.19416117619585L659.4155562715922,312.38456832939755L660.5522733437352,312.47661755422223L661.6889904158783,310.1050521711559L662.8257074880213,311.3977604479842L663.9624245601642,315.1907578874093L665.0991416323072,313.7816623250992L666.2358587044503,316.2993118933482L667.3725757765933,313.23148818327263L669.1673922062928,320.58124757427686L670.3041092784358,317.44135864331065L671.4408263505787,315.11768788419795L672.5775434227219,317.90048834263325L673.7142604948649,314.99772803935366L674.8509775670078,317.12423817864783L675.9876946391508,312.04344473151787L677.1244117112939,315.9922950731325L678.2611287834369,319.50668870352183L679.3978458555799,310.3987277150022L680.5345629277228,310.77021806746325L681.6712799998659,316.2456676816705L682.8079970720089,311.1525377404919L683.9447141441519,311.06997812647387L685.081431216295,316.36043615119115L686.218148288438,316.01518178154856L687.3548653605809,317.31737966918354L688.4915824327239,313.2758660691038L689.628299504867,314.3628730763876L690.76501657701,313.70669439972653L692.5598330067095,319.05369934060354L693.6965500788524,318.2465242096364L694.8332671509955,317.32151044094644L695.9699842231386,317.2394532180888L697.1067012952815,314.27713165168734L698.2434183674245,316.29735814994683L699.3801354395675,317.2246605894784L700.5168525117106,312.82449552214666L701.6535695838536,320.3656659452454L702.7902866559965,311.8053671427506L703.9270037281395,312.29999915073813L705.0637208002826,312.4999508325586L706.2004378724256,316.69486120026613L707.3371549445686,315.83739113202364L708.4738720167117,315.1223210471212L709.6105890888546,315.0375285835016L710.7473061609976,313.18130488847737L711.8840232331406,316.63323455126283L713.0207403052837,309.480412495117L714.1574573774267,312.63219135021154L715.9522738071261,314.32284924727946L717.0889908792691,315.54181766601596L718.2257079514122,318.7182136879678L719.3624250235551,320.74815308199413L720.4991420956982,318.4339719336881L721.6358591678412,318.3962925966616L722.7725762399841,319.38488675775625L723.9092933121273,318.9253663097534L725.0460103842702,317.4724510740125L726.1827274564132,313.434119284615L727.3194445285562,320.9228735633169L728.4561616006991,318.9406613295241L729.5928786728423,316.2567761084383L730.7295957449853,317.463240569406L731.8663128171282,318.6628390178489L733.0030298892713,314.6190367469276L734.1397469614143,313.75012332447704L735.2764640335573,316.23048430437984L736.4131811057003,313.0642477481151L737.5498981778433,313.45354507614866L739.3447146075428,315.1375044244119L740.4814316796859,320.8236792197672L741.6181487518288,318.3866913433749L742.7548658239718,318.5261886222329L743.8915828961149,318.4834853736029L745.0282999682578,317.43298545730477L746.1650170404009,321.82455405367045L747.3017341125438,315.899073602267L748.4384511846869,313.7346608409862L749.5751682568299,316.4381951385658L750.7118853289728,319.37651357175037L751.848602401116,317.3878818953531L752.985319473259,316.062797299302L754.1220365454019,313.6952510455185L755.2587536175449,318.2423934378735L756.395470689688,318.0326172178061L757.532187761831,318.0387575542104L758.668904833974,319.6368638352933L759.8056219061169,318.73535080865986L760.94233897826,317.66408539106715" fill="none"></path></g></g></g></g></g></g><g transform="translate(42, 374)" clip-path="url(#clip_1)"><clipPath id="clip_1"><rect width="837" height="25"></rect></clipPath><g><g><line x1="0" y1="0" x2="0" y2="5" style="visibility: inherit;" fill="rgb(0, 0, 0)" stroke="rgb(204, 204, 204)" stroke-width="1px"></line><line x1="59.8272143233163" y1="0" x2="59.8272143233163" y2="5" style="visibility: inherit;" fill="rgb(0, 0, 0)" stroke="rgb(204, 204, 204)" stroke-width="1px"></line><line x1="119.6544286466326" y1="0" x2="119.6544286466326" y2="5" style="visibility: inherit;" fill="rgb(0, 0, 0)" stroke="rgb(204, 204, 204)" stroke-width="1px"></line><line x1="179.4816429699489" y1="0" x2="179.4816429699489" y2="5" style="visibility: inherit;" fill="rgb(0, 0, 0)" stroke="rgb(204, 204, 204)" stroke-width="1px"></line><line x1="239.3088572932652" y1="0" x2="239.3088572932652" y2="5" style="visibility: inherit;" fill="rgb(0, 0, 0)" stroke="rgb(204, 204, 204)" stroke-width="1px"></line><line x1="299.1360716165815" y1="0" x2="299.1360716165815" y2="5" style="visibility: inherit;" fill="rgb(0, 0, 0)" stroke="rgb(204, 204, 204)" stroke-width="1px"></line><line x1="358.9632859398978" y1="0" x2="358.9632859398978" y2="5" style="visibility: inherit;" fill="rgb(0, 0, 0)" stroke="rgb(204, 204, 204)" stroke-width="1px"></line><line x1="418.7905002632141" y1="0" x2="418.7905002632141" y2="5" style="visibility: inherit;" fill="rgb(0, 0, 0)" stroke="rgb(204, 204, 204)" stroke-width="1px"></line><line x1="478.6177145865304" y1="0" x2="478.6177145865304" y2="5" style="visibility: inherit;" fill="rgb(0, 0, 0)" stroke="rgb(204, 204, 204)" stroke-width="1px"></line><line x1="538.4449289098467" y1="0" x2="538.4449289098467" y2="5" style="visibility: inherit;" fill="rgb(0, 0, 0)" stroke="rgb(204, 204, 204)" stroke-width="1px"></line><line x1="598.272143233163" y1="0" x2="598.272143233163" y2="5" style="visibility: inherit;" fill="rgb(0, 0, 0)" stroke="rgb(204, 204, 204)" stroke-width="1px"></line><line x1="658.0993575564793" y1="0" x2="658.0993575564793" y2="5" style="visibility: inherit;" fill="rgb(0, 0, 0)" stroke="rgb(204, 204, 204)" stroke-width="1px"></line><line x1="717.9265718797956" y1="0" x2="717.9265718797956" y2="5" style="visibility: inherit;" fill="rgb(0, 0, 0)" stroke="rgb(204, 204, 204)" stroke-width="1px"></line><line x1="777.7537862031119" y1="0" x2="777.7537862031119" y2="5" style="visibility: inherit;" fill="rgb(0, 0, 0)" stroke="rgb(204, 204, 204)" stroke-width="1px"></line><line x1="837.5810005264282" y1="0" x2="837.5810005264282" y2="5" style="visibility: inherit;" fill="rgb(0, 0, 0)" stroke="rgb(204, 204, 204)" stroke-width="1px"></line></g><g transform="translate(0, 8)"><text style="text-anchor: middle; visibility: hidden; font-family: Roboto, sans-serif; font-size: 12px; font-weight: 200;" x="0" y="0" dx="0em" dy="0.95em" fill="rgb(33, 33, 33)" stroke="none" stroke-width="1px">-1k</text><text style="text-anchor: middle; visibility: inherit; font-family: Roboto, sans-serif; font-size: 12px; font-weight: 200;" x="59.8272143233163" y="0" dx="0em" dy="0.95em" fill="rgb(33, 33, 33)" stroke="none" stroke-width="1px">0</text><text style="text-anchor: middle; visibility: inherit; font-family: Roboto, sans-serif; font-size: 12px; font-weight: 200;" x="119.6544286466326" y="0" dx="0em" dy="0.95em" fill="rgb(33, 33, 33)" stroke="none" stroke-width="1px">1k</text><text style="text-anchor: middle; visibility: inherit; font-family: Roboto, sans-serif; font-size: 12px; font-weight: 200;" x="179.4816429699489" y="0" dx="0em" dy="0.95em" fill="rgb(33, 33, 33)" stroke="none" stroke-width="1px">2k</text><text style="text-anchor: middle; visibility: inherit; font-family: Roboto, sans-serif; font-size: 12px; font-weight: 200;" x="239.3088572932652" y="0" dx="0em" dy="0.95em" fill="rgb(33, 33, 33)" stroke="none" stroke-width="1px">3k</text><text style="text-anchor: middle; visibility: inherit; font-family: Roboto, sans-serif; font-size: 12px; font-weight: 200;" x="299.1360716165815" y="0" dx="0em" dy="0.95em" fill="rgb(33, 33, 33)" stroke="none" stroke-width="1px">4k</text><text style="text-anchor: middle; visibility: inherit; font-family: Roboto, sans-serif; font-size: 12px; font-weight: 200;" x="358.9632859398978" y="0" dx="0em" dy="0.95em" fill="rgb(33, 33, 33)" stroke="none" stroke-width="1px">5k</text><text style="text-anchor: middle; visibility: inherit; font-family: Roboto, sans-serif; font-size: 12px; font-weight: 200;" x="418.7905002632141" y="0" dx="0em" dy="0.95em" fill="rgb(33, 33, 33)" stroke="none" stroke-width="1px">6k</text><text style="text-anchor: middle; visibility: inherit; font-family: Roboto, sans-serif; font-size: 12px; font-weight: 200;" x="478.6177145865304" y="0" dx="0em" dy="0.95em" fill="rgb(33, 33, 33)" stroke="none" stroke-width="1px">7k</text><text style="text-anchor: middle; visibility: inherit; font-family: Roboto, sans-serif; font-size: 12px; font-weight: 200;" x="538.4449289098467" y="0" dx="0em" dy="0.95em" fill="rgb(33, 33, 33)" stroke="none" stroke-width="1px">8k</text><text style="text-anchor: middle; visibility: inherit; font-family: Roboto, sans-serif; font-size: 12px; font-weight: 200;" x="598.272143233163" y="0" dx="0em" dy="0.95em" fill="rgb(33, 33, 33)" stroke="none" stroke-width="1px">9k</text><text style="text-anchor: middle; visibility: inherit; font-family: Roboto, sans-serif; font-size: 12px; font-weight: 200;" x="658.0993575564793" y="0" dx="0em" dy="0.95em" fill="rgb(33, 33, 33)" stroke="none" stroke-width="1px">10k</text><text style="text-anchor: middle; visibility: inherit; font-family: Roboto, sans-serif; font-size: 12px; font-weight: 200;" x="717.9265718797956" y="0" dx="0em" dy="0.95em" fill="rgb(33, 33, 33)" stroke="none" stroke-width="1px">11k</text><text style="text-anchor: middle; visibility: inherit; font-family: Roboto, sans-serif; font-size: 12px; font-weight: 200;" x="777.7537862031119" y="0" dx="0em" dy="0.95em" fill="rgb(33, 33, 33)" stroke="none" stroke-width="1px">12k</text><text style="text-anchor: middle; visibility: hidden; font-family: Roboto, sans-serif; font-size: 12px; font-weight: 200;" x="837.5810005264282" y="0" dx="0em" dy="0.95em" fill="rgb(33, 33, 33)" stroke="none" stroke-width="1px">13k</text></g><line x1="0" y1="0" x2="837.5810005264282" y2="0" fill="rgb(0, 0, 0)" stroke="rgb(204, 204, 204)" stroke-width="1px"></line></g></g></g></g></svg>